<svg xmlns="http://www.w3.org/2000/svg" width="200" height="200"><path data-name="Path 222" d="M93.333 20v160A16.667 16.667 0 1160 180c0-.233.067-.467.067-.733A18.073 18.073 0 0155 180a18.323 18.323 0 01-18.333-18.333 18.017 18.017 0 01.733-5.033c-.267 0-.5.033-.733.033a20.016 20.016 0 01-20-20A19.8 19.8 0 0122.2 122.9a23.331 23.331 0 010-45.8 19.8 19.8 0 01-5.534-13.767 20.016 20.016 0 0120-20c.233 0 .467.033.733.033a18.017 18.017 0 01-.733-5.033A18.323 18.323 0 0155 20a18.073 18.073 0 015.067.733c0-.267-.067-.5-.067-.733a16.667 16.667 0 0133.333 0z" fill="#fda22e"/><path data-name="Path 223" d="M177.8 77.1a23.331 23.331 0 010 45.8 19.8 19.8 0 015.533 13.767 20.016 20.016 0 01-20 20c-.233 0-.467-.033-.733-.033a18.018 18.018 0 01.733 5.033A18.323 18.323 0 01145 180a18.073 18.073 0 01-5.067-.733c0 .267.067.5.067.733a16.667 16.667 0 11-33.333 0V20A16.667 16.667 0 11140 20c0 .233-.067.467-.067.733A18.073 18.073 0 01145 20a18.323 18.323 0 0118.334 18.333 18.018 18.018 0 01-.733 5.033c.267 0 .5-.033.733-.033a20.016 20.016 0 0120 20 19.8 19.8 0 01-5.533 13.767z" fill="#fda22e"/><g data-name="Group 961" transform="translate(33.333 33.333)" fill="#f82f45"><circle data-name="Ellipse 45" cx="6.667" cy="6.667" r="6.667" transform="translate(100)"/><circle data-name="Ellipse 46" cx="6.667" cy="6.667" r="6.667" transform="translate(120 46.667)"/><circle data-name="Ellipse 47" cx="6.667" cy="6.667" r="6.667" transform="translate(86.667 120)"/><circle data-name="Ellipse 48" cx="6.667" cy="6.667" r="6.667" transform="translate(120 96.667)"/><circle data-name="Ellipse 49" cx="6.667" cy="6.667" r="6.667" transform="translate(30)"/><circle data-name="Ellipse 50" cx="6.667" cy="6.667" r="6.667" transform="translate(3.333 76.667)"/><circle data-name="Ellipse 51" cx="6.667" cy="6.667" r="6.667" transform="translate(23.333 103.333)"/><circle data-name="Ellipse 52" cx="6.667" cy="6.667" r="6.667" transform="translate(0 23.333)"/></g><path data-name="Path 224" d="M183.36 75.293a23.324 23.324 0 00-16.78-35.07c.057-.63.087-1.26.087-1.89a21.725 21.725 0 00-23.6-21.577A20 20 0 00103.333 20v160a20 20 0 0039.737 3.243 21.724 21.724 0 0023.6-21.577c0-.63-.03-1.26-.087-1.89a23.324 23.324 0 0016.78-35.07 26.662 26.662 0 000-49.413zm-6.187 44.33a3.331 3.331 0 00-1.777 5.57 16.641 16.641 0 01-12.237 28.13c-.05 0-.387-.02-.433-.023a3.27 3.27 0 00-2.74 1.28 3.328 3.328 0 00-.577 2.967 14.967 14.967 0 01-18.563 18.523 3.331 3.331 0 00-4.25 3.357c0 .1.057.47.07.573a13.334 13.334 0 11-26.667 0v-66.667h13.334v37.28a10 10 0 106.667 0v-37.28h26.666v13.947a10 10 0 106.667 0V110a3.335 3.335 0 00-3.333-3.333h-50V90h40.613a10 10 0 100-6.667H110V66.667h30a3.335 3.335 0 003.333-3.334V49.387a10 10 0 10-6.667 0V60H110V20a13.332 13.332 0 0126.663-.07c-.013.1-.06.537-.067.643a3.332 3.332 0 004.25 3.357 14.962 14.962 0 0118.564 18.523 3.332 3.332 0 003.316 4.247c.04 0 .567-.03.607-.033a16.648 16.648 0 0112.063 28.14 3.331 3.331 0 001.777 5.57 19.994 19.994 0 010 39.247zM130 160a3.333 3.333 0 11-3.333-3.333A3.339 3.339 0 01130 160zm33.333-23.333a3.333 3.333 0 11-3.333-3.333 3.339 3.339 0 013.333 3.333zm-6.667-50A3.333 3.333 0 11160 90a3.339 3.339 0 01-3.334-3.333zm-20-46.667a3.333 3.333 0 113.333 3.333A3.339 3.339 0 01136.666 40z" fill="#171526"/><path data-name="Path 225" d="M16.64 124.707a23.324 23.324 0 0016.78 35.07c-.057.63-.087 1.26-.087 1.89a21.773 21.773 0 0023.6 21.58A20 20 0 0096.667 180V20a20 20 0 00-39.737-3.243 21.74 21.74 0 00-23.6 21.577c0 .63.03 1.26.087 1.89a23.324 23.324 0 00-16.78 35.07 26.662 26.662 0 000 49.413zM63.333 140A3.333 3.333 0 1160 143.333 3.339 3.339 0 0163.333 140zm3.333 12.72a9.942 9.942 0 000-18.773v-20.614H90V160H66.667zM22.827 80.377a3.331 3.331 0 001.777-5.57 16.641 16.641 0 0112.236-28.13c.047 0 .387.02.433.023a3.424 3.424 0 002.74-1.28 3.328 3.328 0 00.577-2.967A14.967 14.967 0 0159.153 23.93a3.332 3.332 0 004.25-3.357c0-.1-.057-.47-.07-.573A13.334 13.334 0 1190 20v40H73.333V49.387a10 10 0 10-6.667 0V60H49.387a10 10 0 100 6.667H90v16.666H43.333A3.335 3.335 0 0040 86.667v20.613a10 10 0 106.667 0V90H90v16.667H63.333A3.335 3.335 0 0060 110v23.947a9.942 9.942 0 000 18.773v10.613a3.335 3.335 0 003.333 3.333H90V180a13.332 13.332 0 01-26.663.07c.013-.1.06-.537.067-.643a3.335 3.335 0 00-4.253-3.357 14.961 14.961 0 01-18.56-18.523 3.332 3.332 0 00-3.317-4.247c-.04 0-.567.03-.607.033a16.648 16.648 0 01-12.067-28.14 3.331 3.331 0 00-1.777-5.57 19.994 19.994 0 010-39.247zM66.667 40A3.333 3.333 0 1170 43.333 3.339 3.339 0 0166.667 40zM43.333 63.333A3.333 3.333 0 1140 60a3.339 3.339 0 013.333 3.333zm3.333 53.333a3.333 3.333 0 11-3.333-3.333 3.339 3.339 0 013.334 3.334z" fill="#171526"/><path data-name="Path 226" d="M150 60h6.667v6.667H150z" fill="#171526"/><path data-name="Path 227" d="M13.333 96.667H20v6.667h-6.667z" fill="#171526"/><path data-name="Path 228" d="M33.333 136.667H40v6.667h-6.667z" fill="#171526"/><path data-name="Path 229" d="M176.667 96.667h6.667v6.667h-6.667z" fill="#171526"/></svg>