<svg xmlns="http://www.w3.org/2000/svg" width="200" height="200.002"><path data-name="Path 230" d="M119.156 138.665l55.148 55.151a7.814 7.814 0 0011.049 0l8.458-8.458a7.814 7.814 0 000-11.049l-55.147-55.147zm0 0" fill="#ff5d5d"/><path data-name="Path 231" d="M152.727 133.222l-19.509 19.507-14.063-14.064 19.507-19.506zm0 0" fill="#d8d8e4"/><path data-name="Path 232" d="M150.786 77.346a73.44 73.44 0 11-73.44-73.44 73.44 73.44 0 0173.44 73.44zm0 0" fill="#72d8ff"/><path data-name="Path 233" d="M128.911 77.347a51.565 51.565 0 11-51.564-51.565 51.565 51.565 0 0151.564 51.565zm0 0" fill="#fff"/><path data-name="Path 234" d="M73.475 98.927L52.866 78.318l11.049-11.047 9.56 9.56 22.707-22.707 11.048 11.047zm0 0" fill="#ff5d5d"/><path data-name="Path 235" d="M73.475 102.833a3.894 3.894 0 002.763-1.144l33.754-33.756a3.9 3.9 0 000-5.524L98.944 51.363a3.908 3.908 0 00-5.524 0L73.475 71.308l-6.8-6.8a3.909 3.909 0 00-5.524 0L50.1 75.557a3.91 3.91 0 000 5.525l20.61 20.609a3.894 3.894 0 002.765 1.142zm-9.56-30.04l6.8 6.8a3.909 3.909 0 005.524 0l19.945-19.945 5.524 5.524-28.233 28.231L58.39 78.318zm0 0"/><path data-name="Path 236" d="M43.388 110.789a3.906 3.906 0 10-5.559 5.49l.293.295a3.906 3.906 0 005.524-5.525zm0 0"/><path data-name="Path 237" d="M116.569 38.123a55.479 55.479 0 00-88.671 64.391 3.907 3.907 0 106.963-3.545 47.657 47.657 0 1122.4 21.61 3.906 3.906 0 00-3.291 7.085 55.478 55.478 0 0062.6-89.541zm0 0"/><path data-name="Path 238" d="M196.574 171.544l-53.49-53.489a77.41 77.41 0 10-25.032 25.031l53.49 53.489a11.733 11.733 0 0016.574 0l8.458-8.458a11.733 11.733 0 000-16.573zM7.813 77.346a69.534 69.534 0 1169.533 69.534A69.612 69.612 0 017.813 77.346zm130.742 47.228l8.646 8.647-13.983 13.979-8.647-8.647a78 78 0 0013.983-13.979zm52.494 58.019l-8.458 8.458a3.91 3.91 0 01-5.524 0l-38.323-38.323 13.982-13.982 38.323 38.321a3.912 3.912 0 01-.001 5.526zm0 0"/></svg>