<svg xmlns="http://www.w3.org/2000/svg" width="59.998" height="54.999" viewBox="0 0 59.998 54.999">
  <g id="image-gallery" transform="translate(0 -2)">
    <g id="Group_931" data-name="Group 931" transform="translate(0 21.252)">
      <path id="Path_150" data-name="Path 150" d="M43.631,45.448a4.987,4.987,0,0,1-1.275-.165L3.7,34.931A5.045,5.045,0,0,1,.164,28.806l4.877-18.18a1.25,1.25,0,0,1,2.415.645L2.582,29.446a2.537,2.537,0,0,0,1.775,3.072L43,42.866a2.489,2.489,0,0,0,3.042-1.76l1.952-7.235a1.25,1.25,0,1,1,2.415.65l-1.95,7.225a4.993,4.993,0,0,1-4.827,3.7Z" transform="translate(0 -9.701)"/>
    </g>
    <g id="Group_934" data-name="Group 934" transform="translate(12.667 15.875)">
      <path id="Path_153" data-name="Path 153" d="M5.258,31a1.163,1.163,0,0,1-.841-.365,1.3,1.3,0,0,1,0-1.767L15.633,17.06a3.519,3.519,0,0,1,5.037,0l3.339,3.515L33.252,8.9a3.5,3.5,0,0,1,2.712-1.35h.026a3.488,3.488,0,0,1,2.7,1.307l12.42,15.255a1.3,1.3,0,0,1-.128,1.762,1.144,1.144,0,0,1-1.674-.135L36.892,10.485a1.151,1.151,0,0,0-.9-.435,1.234,1.234,0,0,0-.912.45L25,23.227a1.163,1.163,0,0,1-.86.447,1.113,1.113,0,0,1-.893-.365l-4.258-4.482a1.176,1.176,0,0,0-1.679,0L6.1,30.635A1.154,1.154,0,0,1,5.258,31Z" transform="translate(-4.07 -7.55)" fill="#5064f6"/>
    </g>
    <g id="Group_932" data-name="Group 932" transform="translate(9.999 2)">
      <path id="Path_151" data-name="Path 151" d="M49,42H9a5,5,0,0,1-5-5V7A5,5,0,0,1,9,2H49a5,5,0,0,1,5,5V37A5,5,0,0,1,49,42ZM9,4.5A2.5,2.5,0,0,0,6.5,7V37A2.5,2.5,0,0,0,9,39.5H49A2.5,2.5,0,0,0,51.5,37V7A2.5,2.5,0,0,0,49,4.5Z" transform="translate(-4 -2)"/>
    </g>
    <g id="Group_933" data-name="Group 933" transform="translate(17.499 9.5)">
      <path id="Path_152" data-name="Path 152" d="M12,15a5,5,0,1,1,5-5A5,5,0,0,1,12,15Zm0-7.5A2.5,2.5,0,1,0,14.5,10,2.5,2.5,0,0,0,12,7.5Z" transform="translate(-7 -5)" fill="#5064f6"/>
    </g>
  </g>
</svg>
