<svg xmlns="http://www.w3.org/2000/svg" width="60" height="59.993" viewBox="0 0 60 59.993">
  <g id="review" transform="translate(0 -0.029)">
    <g id="Group_912" data-name="Group 912" transform="translate(6.348 6.491)">
      <g id="Group_911" data-name="Group 911">
        <path id="Path_89" data-name="Path 89" d="M45.949,45.351a1.426,1.426,0,0,0,0,2.851h.014a1.426,1.426,0,0,0-.014-2.851Z" transform="translate(-44.523 -45.351)"/>
      </g>
    </g>
    <g id="Group_914" data-name="Group 914" transform="translate(10.74 6.491)">
      <g id="Group_913" data-name="Group 913">
        <path id="Path_90" data-name="Path 90" d="M93.894,45.351a1.426,1.426,0,0,0,0,2.851h.014a1.426,1.426,0,1,0-.014-2.851Z" transform="translate(-92.468 -45.351)"/>
      </g>
    </g>
    <g id="Group_916" data-name="Group 916" transform="translate(16.309 6.491)">
      <g id="Group_915" data-name="Group 915">
        <path id="Path_91" data-name="Path 91" d="M141.839,45.351a1.426,1.426,0,1,0,0,2.851h.014a1.426,1.426,0,0,0-.014-2.851Z" transform="translate(-140.413 -45.351)"/>
      </g>
    </g>
    <g id="Group_918" data-name="Group 918" transform="translate(28.416 6.491)">
      <g id="Group_917" data-name="Group 917">
        <path id="Path_92" data-name="Path 92" d="M283.049,45.351h-17.3a1.426,1.426,0,0,0,0,2.851h17.3a1.426,1.426,0,1,0,0-2.851Z" transform="translate(-264.323 -45.351)" fill="#5064f6"/>
      </g>
    </g>
    <g id="Group_920" data-name="Group 920" transform="translate(25.188 45.789)">
      <g id="Group_919" data-name="Group 919">
        <path id="Path_93" data-name="Path 93" d="M219.278,394.4a1.425,1.425,0,1,0,.418,1.008A1.437,1.437,0,0,0,219.278,394.4Z" transform="translate(-216.844 -393.982)" fill="#5064f6"/>
      </g>
    </g>
    <g id="Group_922" data-name="Group 922" transform="translate(0 0.029)">
      <g id="Group_921" data-name="Group 921">
        <path id="Path_94" data-name="Path 94" d="M53.673,15.058V5.888A5.865,5.865,0,0,0,47.814.029H5.859A5.865,5.865,0,0,0,0,5.888V42.911a5.634,5.634,0,0,0,5.628,5.628h4.4v.19a.845.845,0,0,1-.678.827l-4.416.88A5.683,5.683,0,0,0,.375,55.412L.014,58.723a1.172,1.172,0,0,0,1.165,1.3h25.4a1.172,1.172,0,0,0,1.165-1.3l-.362-3.312a5.683,5.683,0,0,0-4.556-4.975l-4.417-.88a.845.845,0,0,1-.678-.827v-1.1c0-.006,0-.012,0-.018l1.986-1.135c.022-.012.043-.026.064-.039a4.4,4.4,0,0,0,1.871-3.35c0-.03,0-.06,0-.089V38.192a3,3,0,0,0,1.211-2.737l0-2.633a1.174,1.174,0,0,0-.007-.129,4.326,4.326,0,0,0-4.343-4.12H8.563a1.962,1.962,0,0,1-1.106-.426A1.609,1.609,0,0,0,4.89,29.439v3.813A5.418,5.418,0,0,0,6.1,36.673V43q0,.045,0,.089A4.467,4.467,0,0,0,7.666,46.2H5.628a3.288,3.288,0,0,1-3.284-3.284V18.316H15.429a1.172,1.172,0,1,0,0-2.344H2.344V12.692H51.329v2.333H32.308a7,7,0,0,0-6.991,6.991v9.808a7,7,0,0,0,6.991,6.991h1.465v3.426a1.172,1.172,0,0,0,2,.829l4.254-4.255h11.3v4.1A3.288,3.288,0,0,1,48.045,46.2H31.351a1.172,1.172,0,1,0,0,2.344H48.045a5.634,5.634,0,0,0,5.628-5.628V38.783A7,7,0,0,0,60,31.824V22.017A7,7,0,0,0,53.673,15.058Zm-35.18,36.9,3.879.773a3.348,3.348,0,0,1,2.685,2.931l.22,2.013H2.485L2.7,55.666a3.348,3.348,0,0,1,2.684-2.932l3.88-.773a6.94,6.94,0,0,0,9.224,0Zm-6.874-1.184a3.182,3.182,0,0,0,.741-1.838,3.41,3.41,0,0,0,3.041,0,3.183,3.183,0,0,0,.742,1.838,4.605,4.605,0,0,1-4.524,0Zm7.7-7.829a2.081,2.081,0,0,1-.8,1.515l-3.937,2.25c-.022.012-.043.026-.064.039a1.113,1.113,0,0,1-1.275,0l-.063-.039L9.255,44.463a2.083,2.083,0,0,1-.808-1.515v-4.59a5.417,5.417,0,0,0,1.888.338h8.979v4.252Zm-12.081-9.7v-2.58a3.831,3.831,0,0,0,1.329.245h9.957a2,2,0,0,1,2,1.948c0,.013,0,.026,0,.039l0,2.55h0c0,.593-.121.743-.135.758-.047.052-.253.14-.721.14H10.335A3.1,3.1,0,0,1,7.234,33.252Zm-4.89-22.9V5.888A3.519,3.519,0,0,1,5.859,2.373H47.814a3.519,3.519,0,0,1,3.515,3.515v4.461H2.344ZM57.656,31.824a4.653,4.653,0,0,1-4.648,4.648H39.542a1.172,1.172,0,0,0-.829.343l-2.6,2.6V37.644a1.172,1.172,0,0,0-1.172-1.172H32.308a4.653,4.653,0,0,1-4.648-4.648V22.017a4.653,4.653,0,0,1,4.648-4.648h20.7a4.653,4.653,0,0,1,4.648,4.648v9.808Z" transform="translate(0 -0.029)"/>
      </g>
    </g>
    <g id="Group_924" data-name="Group 924" transform="translate(28.913 22.69)">
      <g id="Group_923" data-name="Group 923">
        <path id="Path_95" data-name="Path 95" d="M258.307,199.125a4.277,4.277,0,1,0,4.277,4.277A4.282,4.282,0,0,0,258.307,199.125Zm0,5.7a1.426,1.426,0,1,1,1.426-1.426A1.427,1.427,0,0,1,258.307,204.827Z" transform="translate(-254.03 -199.125)" fill="#5064f6"/>
      </g>
    </g>
    <g id="Group_926" data-name="Group 926" transform="translate(38.017 22.69)">
      <g id="Group_925" data-name="Group 925">
        <path id="Path_96" data-name="Path 96" d="M338.3,199.125a4.277,4.277,0,1,0,4.277,4.277A4.282,4.282,0,0,0,338.3,199.125Zm0,5.7a1.426,1.426,0,1,1,1.426-1.426A1.427,1.427,0,0,1,338.3,204.827Z" transform="translate(-334.021 -199.125)" fill="#5064f6"/>
      </g>
    </g>
    <g id="Group_928" data-name="Group 928" transform="translate(47.029 22.69)">
      <g id="Group_927" data-name="Group 927">
        <path id="Path_97" data-name="Path 97" d="M418.289,199.125a4.277,4.277,0,1,0,4.277,4.277A4.282,4.282,0,0,0,418.289,199.125Zm0,5.7a1.426,1.426,0,1,1,1.426-1.426A1.427,1.427,0,0,1,418.289,204.827Z" transform="translate(-414.012 -199.125)" fill="#5064f6"/>
      </g>
    </g>
    <g id="Group_930" data-name="Group 930" transform="translate(18.487 15.832)">
      <g id="Group_929" data-name="Group 929">
        <path id="Path_98" data-name="Path 98" d="M161.593,136.5a1.424,1.424,0,1,0,.418,1.008A1.436,1.436,0,0,0,161.593,136.5Z" transform="translate(-159.16 -136.082)"/>
      </g>
    </g>
  </g>
</svg>
