<svg xmlns="http://www.w3.org/2000/svg" width="50.305" height="59.36"><path data-name="Path 104" d="M0 28.17v10.175A12.049 12.049 0 005.376 48.39l.66.44v9.523a1.006 1.006 0 001.006 1.006h12.074a1.006 1.006 0 001.006-1.006V45.726a23.1 23.1 0 0010.061 0v12.628a1.006 1.006 0 001.006 1.006h12.073a1.006 1.006 0 001.006-1.006v-9.523l.66-.44A12.049 12.049 0 0050.3 38.345V28.17a3.024 3.024 0 00-2.114-2.88c.066-.714.1-1.433.1-2.151a1.006 1.006 0 00-1.006-1.006h-8.042a1.006 1.006 0 00-1.006 1.006 13.079 13.079 0 11-13.08-13.078 1.006 1.006 0 001.006-1.006V1.006a1.006 1.006 0 00-1.006-1.007 23.167 23.167 0 00-23.14 23.14c0 .717.036 1.437.1 2.151A3.024 3.024 0 000 28.17zm18.11 29.177H8.049v-8.048H18.11zm24.146 0H32.2v-8.048h10.056zm6.037-19a10.041 10.041 0 01-4.48 8.371l-.855.57H32.2v-2.107a23.166 23.166 0 005.1-2.344 7.832 7.832 0 00-.071 1.035v1.4h2.012v-1.4a5.761 5.761 0 012.571-4.8 1.006 1.006 0 00.448-.837v-4.028a1.006 1.006 0 112.012 0v5.031h2.012V28.17a1.006 1.006 0 112.012 0zM24.146 2.035v6.046a15.092 15.092 0 1016.065 16.065h6.046c-.019.409-.051.817-.094 1.222a3.022 3.022 0 00-1.895 2.8v3.191a3.018 3.018 0 00-4.025 2.846v3.509a7.777 7.777 0 00-1.611 1.691 21.126 21.126 0 01-26.963 0 7.775 7.775 0 00-1.611-1.691v-3.507a3.017 3.017 0 00-4.025-2.846v-3.19a3.022 3.022 0 00-1.9-2.8 21.458 21.458 0 01-.117-2.228 21.154 21.154 0 0120.122-21.1zM2.012 28.17a1.006 1.006 0 012.012 0v11.068h2.012v-5.031a1.006 1.006 0 012.012 0v4.024a1.006 1.006 0 00.448.837 5.761 5.761 0 012.571 4.8v1.4h2.012v-1.4a7.826 7.826 0 00-.071-1.035 23.162 23.162 0 005.1 2.344v2.105H7.347l-.855-.57a10.041 10.041 0 01-4.48-8.371z"/></svg>