<svg xmlns="http://www.w3.org/2000/svg" width="59.998" height="54.999"><g data-name="Group 931"><path data-name="Path 150" d="M43.631 54.999a4.987 4.987 0 01-1.275-.165L3.7 44.482a5.045 5.045 0 01-3.536-6.125l4.877-18.18a1.25 1.25 0 012.415.645L2.582 38.997a2.537 2.537 0 001.775 3.072L43 52.417a2.489 2.489 0 003.042-1.76l1.952-7.235a1.25 1.25 0 112.415.65l-1.95 7.225a4.993 4.993 0 01-4.827 3.7z"/></g><g data-name="Group 934"><path data-name="Path 153" d="M13.855 37.325a1.163 1.163 0 01-.841-.365 1.3 1.3 0 010-1.767L24.23 23.385a3.519 3.519 0 015.037 0l3.339 3.515 9.243-11.675a3.5 3.5 0 012.712-1.35h.026a3.488 3.488 0 012.7 1.307l12.42 15.255a1.3 1.3 0 01-.128 1.762 1.144 1.144 0 01-1.674-.135L45.489 16.81a1.151 1.151 0 00-.9-.435 1.234 1.234 0 00-.912.45l-10.08 12.727a1.163 1.163 0 01-.86.447 1.113 1.113 0 01-.893-.365l-4.258-4.482a1.176 1.176 0 00-1.679 0L14.697 36.96a1.154 1.154 0 01-.842.365z" fill="#5064f6"/></g><g data-name="Group 932"><path data-name="Path 151" d="M54.999 40h-40a5 5 0 01-5-5V5a5 5 0 015-5h40a5 5 0 015 5v30a5 5 0 01-5 5zm-40-37.5a2.5 2.5 0 00-2.5 2.5v30a2.5 2.5 0 002.5 2.5h40a2.5 2.5 0 002.5-2.5V5a2.5 2.5 0 00-2.5-2.5z"/></g><g data-name="Group 933"><path data-name="Path 152" d="M22.499 17.5a5 5 0 115-5 5 5 0 01-5 5zm0-7.5a2.5 2.5 0 102.5 2.5 2.5 2.5 0 00-2.5-2.5z" fill="#5064f6"/></g></svg>