<svg xmlns="http://www.w3.org/2000/svg" width="46" height="46"><path data-name="Path 81" d="M42.167 0H3.833A3.838 3.838 0 000 3.833v19.934A3.838 3.838 0 003.833 27.6h10.734v6.133a.765.765 0 00.225.542l3.608 3.609v7.349a.767.767 0 00.767.767H41.4a.767.767 0 00.767-.767V27.6A3.838 3.838 0 0046 23.767V3.833A3.838 3.838 0 0042.167 0zM16.1 33.416V27.6h10.733v4.6a.765.765 0 00.225.542l3.067 3.067 1.084-1.084-2.842-2.842v-5.05a.765.765 0 00-.225-.542l-4.414-4.414a2.486 2.486 0 113.516-3.516l9.014 9.014a.765.765 0 00.542.225h3.833v13.033h-20.7v-3.066a.765.765 0 00-.225-.542zm3.833 11.051v-2.3h20.7v2.3zm24.533-20.7a2.3 2.3 0 01-2.3 2.3h-5.049l-8.789-8.789a4.019 4.019 0 10-5.684 5.684l3.1 3.1H3.833a2.3 2.3 0 01-2.3-2.3V3.833a2.3 2.3 0 012.3-2.3h38.334a2.3 2.3 0 012.3 2.3zm0 0"/><path data-name="Path 82" d="M18.694 6.959a.764.764 0 00-.836.166L16.183 8.8l-4.07-5.427a.794.794 0 00-1.226 0L6.817 8.8 5.142 7.125a.766.766 0 00-1.309.542V16.1a7.667 7.667 0 1015.333 0V7.667a.768.768 0 00-.473-.708zM6.358 10.508a.778.778 0 00.6.223.77.77 0 00.559-.3L11.5 5.108l3.987 5.316a.766.766 0 001.155.081l.991-.991v2.749H5.367V9.518zM17.633 16.1a6.133 6.133 0 11-12.267 0v-2.3h12.267zm0 0" fill="#5064f6"/><path data-name="Path 83" d="M10.733 9.2h1.533v1.533h-1.533zm0 0" fill="#5064f6"/><path data-name="Path 84" d="M11.5 20.7a4.6 4.6 0 004.6-4.6h-1.533a3.067 3.067 0 11-6.133 0H6.9a4.6 4.6 0 004.6 4.6zm0 0" fill="#5064f6"/><path data-name="Path 85" d="M39.866 7.667h-6.133a2.3 2.3 0 00-2.3 2.3v3.067a2.3 2.3 0 002.3 2.3h6.133a2.3 2.3 0 002.3-2.3V9.967a2.3 2.3 0 00-2.3-2.3zm.767 2.3v.767H39.1V9.2h.767a.768.768 0 01.766.767zm-4.6.767V9.2h1.533v1.533zm1.533 1.533V13.8h-1.533v-1.533zM33.733 9.2h.767v1.533h-1.533v-.766a.768.768 0 01.766-.767zm-.767 3.833v-.766h1.533V13.8h-.766a.768.768 0 01-.767-.766zm6.9.767h-.767v-1.533h1.534v.767a.768.768 0 01-.767.766zm0 0"/><path data-name="Path 86" d="M39.1 16.867h1.533V18.4H39.1zm0 0"/><path data-name="Path 87" d="M36.033 16.867h1.533V18.4h-1.533zm0 0"/><path data-name="Path 88" d="M32.967 16.867H34.5V18.4h-1.533zm0 0"/></svg>