<svg xmlns="http://www.w3.org/2000/svg" width="55" height="55"><path data-name="Path 107" d="M9.758 15.081v1.774a5.316 5.316 0 002.452 4.476 2.3 2.3 0 01-1.777.846h-.123a4.1 4.1 0 00-4.1 4.1v4.774a.887.887 0 00.887.887h15.968a.887.887 0 00.887-.887v-2.664h7.1v2.661a.887.887 0 00.887.887h15.964a.887.887 0 00.887-.887v-4.774a4.1 4.1 0 00-4.1-4.1h-.13a2.294 2.294 0 01-1.776-.846 5.318 5.318 0 002.454-4.476v-1.771a5.323 5.323 0 10-10.645 0v1.774a5.316 5.316 0 002.455 4.476 2.276 2.276 0 01-1 .7 4.1 4.1 0 00-3.777-2.512h-.13a2.294 2.294 0 01-1.776-.846 5.318 5.318 0 002.458-4.476V12.42a5.323 5.323 0 00-10.645 0v1.777a5.316 5.316 0 002.455 4.476 2.3 2.3 0 01-1.777.846h-.13a4.1 4.1 0 00-3.777 2.513 2.276 2.276 0 01-1-.7 5.319 5.319 0 002.455-4.477v-1.774a5.323 5.323 0 10-10.645 0zm12.42 15.08H7.984v-3.887a2.325 2.325 0 012.326-2.322h.13a4.178 4.178 0 00.67-.059l.319.319a5.161 5.161 0 007.2.1v3.185a.887.887 0 00.887.887h2.661zm22.516-6.21a2.325 2.325 0 012.322 2.322v3.887H32.823v-1.773h2.661a.887.887 0 00.887-.887v-3.191a5.161 5.161 0 007.2-.1l.319-.319a4.178 4.178 0 00.67.059zm-8.323-8.871a3.55 3.55 0 117.1 0v1.774a3.55 3.55 0 01-7.1 0zm3.548 7.1a5.309 5.309 0 001.189-.138 4.082 4.082 0 001 1.089 3.475 3.475 0 01-4.379 0 4.067 4.067 0 001-1.089 5.309 5.309 0 001.189.138zm-15.967-9.76a3.55 3.55 0 117.1 0v1.777a3.55 3.55 0 11-7.1 0zm3.548 7.1a5.309 5.309 0 001.189-.138 4.082 4.082 0 001 1.089 3.475 3.475 0 01-4.379 0 4.067 4.067 0 001-1.089 5.309 5.309 0 001.189.138zm-7.1 4.1a2.325 2.325 0 012.322-2.322h.13a4.178 4.178 0 00.67-.059l.319.319a5.17 5.17 0 007.311 0l.319-.319a4.178 4.178 0 00.67.059h.13a2.325 2.325 0 012.322 2.322v3h-14.19zm-3.133-.485a3.475 3.475 0 01-4.379 0 4.067 4.067 0 001-1.089 5.158 5.158 0 002.377 0 4.05 4.05 0 001 1.088zm1.359-8.047v1.774a3.55 3.55 0 01-7.1 0v-1.781a3.55 3.55 0 117.1 0z" fill="#5064f6"/><path data-name="Path 108" d="M49.406 37.541L31.23 42.498a3.41 3.41 0 00-.442-.546l-6.21-6.21a.888.888 0 00-.627-.259h-9.758v-.887a.887.887 0 00-.887-.886H.887a.887.887 0 00-.887.887V54.11a.887.887 0 00.887.887h7.1a.887.887 0 00.887-.887v-.887h4.435a.887.887 0 00.887-.887v-.887h6.066l5.186 1.728a.875.875 0 00.569 0L54.4 43.419a.885.885 0 00.6-.838v-.887a4.31 4.31 0 00-5.594-4.152zM7.1 53.226H1.774V35.484H7.1zm5.323-1.774H8.871V35.484h3.548zm40.806-9.5l-27.5 9.455-5.038-1.679a.913.913 0 00-.28-.045h-6.21V37.258h9.391l5.95 5.95a1.622 1.622 0 01-2.294 2.294L22.8 41.067l-1.25 1.254 4.435 4.435a3.384 3.384 0 005.78-2.565l18.106-4.938a2.539 2.539 0 013.353 2.44z"/><path data-name="Path 109" d="M35.627 1.22Q34.765.955 33.88.744l-.412 1.725q.829.2 1.635.447z"/><path data-name="Path 110" d="M53.229 27.5c0 .4-.009.8-.027 1.192l1.772.082q.029-.633.029-1.274 0-.269-.005-.537l-1.774.035c0 .168.005.335.005.5z"/><path data-name="Path 111" d="M32.107.382c-.585-.1-1.188-.18-1.795-.242l-.18 1.765q.848.085 1.678.227z"/><path data-name="Path 112" d="M52.628 21.957l1.732-.381a27.988 27.988 0 00-.446-1.755l-1.7.494q.234.812.418 1.642z"/><path data-name="Path 113" d="M39.014 2.518a24.33 24.33 0 00-1.671-.7l-.635 1.651q.794.3 1.562.659z"/><path data-name="Path 114" d="M53.134 25.305l1.768-.151q-.077-.907-.212-1.8l-1.755.265q.128.833.2 1.683z"/><path data-name="Path 115" d="M48.559 12.723l1.451-1.02q-.52-.741-1.088-1.446l-1.383 1.112q.532.66 1.02 1.354z"/><path data-name="Path 116" d="M51.684 18.71l1.668-.607a28.083 28.083 0 00-.674-1.678l-1.623.716q.339.772.63 1.569z"/><path data-name="Path 117" d="M47.741 8.885c-.4-.439-.831-.874-1.269-1.292l-1.224 1.284q.612.584 1.187 1.208z"/><path data-name="Path 118" d="M42.195 4.252c-.506-.32-1.032-.63-1.563-.919l-.847 1.56q.745.406 1.46.859z"/><path data-name="Path 119" d="M52.008 35.347l1.69.54c.185-.577.35-1.164.494-1.744l-1.722-.426q-.205.826-.462 1.63z"/><path data-name="Path 120" d="M54.83 30.579l-1.764-.2q-.094.846-.243 1.676l1.747.314c.107-.587.192-1.19.26-1.79z"/><path data-name="Path 121" d="M45.121 6.386a28.537 28.537 0 00-1.427-1.115l-1.046 1.433q.685.5 1.335 1.044z"/><path data-name="Path 122" d="M50.319 15.618l1.573-.821a28.098 28.098 0 00-.89-1.575l-1.515.922q.44.716.832 1.474z"/><path data-name="Path 123" d="M2.844 20.132l-1.7-.507a27.905 27.905 0 00-.46 1.753l1.73.393q.189-.83.43-1.639z"/><path data-name="Path 124" d="M4.026 16.959l-1.618-.725c-.246.545-.477 1.11-.688 1.677l1.662.618q.299-.795.644-1.57z"/><path data-name="Path 125" d="M5.618 13.966l-1.507-.936a25.47 25.47 0 00-.9 1.571l1.566.834q.395-.749.841-1.469z"/><path data-name="Path 126" d="M7.588 11.209l-1.373-1.123q-.574.7-1.1 1.437l1.441 1.033q.493-.69 1.032-1.347z"/><path data-name="Path 127" d="M1.794 28.502c-.013-.333-.02-.668-.02-1 0-.232 0-.462.009-.692L.01 26.759c-.01.245-.01.493-.01.742q0 .536.02 1.069z"/><path data-name="Path 128" d="M2.093 23.435L.34 23.153c-.094.594-.169 1.2-.224 1.8l1.766.163q.079-.85.211-1.681z"/><path data-name="Path 129" d="M.148 30.377q.094.907.247 1.794l1.749-.3q-.142-.83-.231-1.678z"/><path data-name="Path 130" d="M12.521 6.583l-1.04-1.438q-.735.528-1.434 1.1l1.127 1.371q.654-.537 1.347-1.033z"/><path data-name="Path 131" d="M18.471 3.404l-.623-1.662a27.63 27.63 0 00-1.671.69l.731 1.616q.769-.347 1.563-.645z"/><path data-name="Path 132" d="M21.71 2.427l-.4-1.729a26.9 26.9 0 00-1.752.464l.513 1.7a24.888 24.888 0 011.639-.435z"/><path data-name="Path 133" d="M25.054 1.889L24.889.122c-.594.055-1.2.132-1.8.23l.283 1.752c.557-.09 1.117-.163 1.682-.215z"/><path data-name="Path 134" d="M15.39 4.797l-.836-1.565c-.532.284-1.059.588-1.567.906l.939 1.505q.715-.447 1.464-.846z"/><path data-name="Path 135" d="M27.424 1.774c.337 0 .681.005 1.019.017l.06-1.772a27.84 27.84 0 00-1-.019c-.271 0-.54 0-.809.011l.054 1.774c.224-.007.448-.011.676-.011z"/><path data-name="Path 136" d="M9.901 8.738l-1.212-1.3c-.434.405-.864.837-1.28 1.282l1.3 1.211c.385-.413.787-.816 1.192-1.193z"/></svg>