<svg xmlns="http://www.w3.org/2000/svg" width="70" height="56.179"><path data-name="Path 145" d="M55.781 7.153a.918.918 0 10-1.3 0 .918.918 0 001.3 0zm0 0" fill="#5064f6"/><path data-name="Path 146" d="M17.28 12.906a.918.918 0 10-1.3 0 .918.918 0 001.3 0zm0 0" fill="#5064f6"/><path data-name="Path 147" d="M6.576 19.924l2.747-2.749a.92.92 0 00-1.3-1.3l-2.745 2.751a.92.92 0 001.3 1.3zm0 0" fill="#5064f6"/><path data-name="Path 148" d="M63.516 16.166a.92.92 0 101.3-1.3l-1.833-1.83a.92.92 0 00-1.3 1.3zm0 0" fill="#5064f6"/><path data-name="Path 149" d="M69.6 15.869L54.134.4a1.366 1.366 0 00-1.9-.028A4926.711 4926.711 0 0045.3 6.9l-.015.014a5.731 5.731 0 01-4.269 1.933 10.849 10.849 0 00-7.931 2.922 10.181 10.181 0 00-6.4-2.756l-6.832-6.835a1.367 1.367 0 00-1.934 0L.4 19.7a1.365 1.365 0 00-.03 1.9l.03.033 11.416 11.4-.483.483a4.781 4.781 0 003.433 8.164 4.779 4.779 0 004.834 4.83 4.777 4.777 0 004.834 4.832 4.784 4.784 0 008.166 3.437l.484-.484.484.484a4.785 4.785 0 008.168-3.435 4.777 4.777 0 004.831-4.833 4.783 4.783 0 004.833-4.836 4.781 4.781 0 003.433-8.164l-.482-.482C63.888 23.507 51.83 35.575 69.6 17.8a1.367 1.367 0 000-1.933zM3.3 20.663L18.886 5.078l5.252 5.252L8.557 25.915zm9.966 17.681a2.05 2.05 0 010-2.9L18.1 30.61a2.051 2.051 0 012.9 2.9l-4.833 4.833a2.056 2.056 0 01-2.9 0zm4.834 4.835a2.049 2.049 0 010-2.9l4.833-4.833a2.051 2.051 0 112.9 2.9L21 43.179a2.053 2.053 0 01-2.9 0zm4.833 4.833a2.049 2.049 0 010-2.9l4.834-4.834a2.051 2.051 0 012.9 2.9l-4.832 4.832a2.055 2.055 0 01-2.9 0zm4.834 4.835a2.049 2.049 0 010-2.9l4.833-4.835a2.051 2.051 0 012.9 2.9l-4.834 4.834a2.054 2.054 0 01-2.9 0zm10.634 0a2.052 2.052 0 01-2.9 0l-.484-.484 2.417-2.417a4.94 4.94 0 00.448-.519l.518.519a2.049 2.049 0 010 2.9zm14.5-14.5a2.055 2.055 0 01-2.9 0l-6.281-6.286a1.367 1.367 0 00-1.934 1.933l6.284 6.284a2.051 2.051 0 01-2.9 2.9l-6.284-6.285a1.368 1.368 0 00-1.934 1.934l6.284 6.285a2.051 2.051 0 01-1.451 3.5c-1.3 0-1.718-1.023-2.95-2.1A4.783 4.783 0 0034 41.777a4.779 4.779 0 00-4.834-4.831 4.779 4.779 0 00-4.833-4.836 4.785 4.785 0 00-8.168-3.433l-2.415 2.418-3.258-3.248 16.091-16.094a7.382 7.382 0 014.564 1.947l-3.863 3.862a5.47 5.47 0 007.735 7.734l3.868-3.867L52.9 35.445a2.052 2.052 0 010 2.9zm-.483-7.249l-11.6-11.6.967-.967a1.368 1.368 0 00-1.934-1.934l-6.766 6.763a2.735 2.735 0 01-3.868-3.868l5.568-5.566a8.145 8.145 0 016.232-2.345 8.028 8.028 0 005.168-1.811L59.8 23.737l-7.377 7.358zm9.315-9.298L48.2 7.922l4.936-4.65L66.7 16.836zm0 0"/></svg>