<svg xmlns="http://www.w3.org/2000/svg" width="60" height="59.993"><g data-name="Group 912"><g data-name="Group 911"><path data-name="Path 89" d="M7.774 6.462a1.426 1.426 0 000 2.851h.014a1.426 1.426 0 00-.014-2.851z"/></g></g><g data-name="Group 914"><g data-name="Group 913"><path data-name="Path 90" d="M12.166 6.462a1.426 1.426 0 000 2.851h.014a1.426 1.426 0 10-.014-2.851z"/></g></g><g data-name="Group 916"><g data-name="Group 915"><path data-name="Path 91" d="M17.735 6.462a1.426 1.426 0 100 2.851h.014a1.426 1.426 0 00-.014-2.851z"/></g></g><g data-name="Group 918"><g data-name="Group 917"><path data-name="Path 92" d="M47.142 6.462h-17.3a1.426 1.426 0 000 2.851h17.3a1.426 1.426 0 100-2.851z" fill="#5064f6"/></g></g><g data-name="Group 920"><g data-name="Group 919"><path data-name="Path 93" d="M27.622 46.178a1.425 1.425 0 10.418 1.008 1.437 1.437 0 00-.418-1.008z" fill="#5064f6"/></g></g><g data-name="Group 922"><g data-name="Group 921"><path data-name="Path 94" d="M53.673 15.029v-9.17A5.865 5.865 0 0047.814 0H5.859A5.865 5.865 0 000 5.859v37.023a5.634 5.634 0 005.628 5.628h4.4v.19a.845.845 0 01-.678.827l-4.416.88a5.683 5.683 0 00-4.559 4.976l-.361 3.311a1.172 1.172 0 001.165 1.3h25.4a1.172 1.172 0 001.165-1.3l-.362-3.312a5.683 5.683 0 00-4.556-4.975l-4.417-.88a.845.845 0 01-.678-.827v-1.118l1.986-1.135c.022-.012.043-.026.064-.039a4.4 4.4 0 001.871-3.35v-4.895a3 3 0 001.211-2.737v-2.633a1.174 1.174 0 00-.007-.129 4.326 4.326 0 00-4.343-4.12h-9.95a1.962 1.962 0 01-1.106-.426A1.609 1.609 0 004.89 29.41v3.813a5.418 5.418 0 001.21 3.421v6.416a4.467 4.467 0 001.566 3.111H5.628a3.288 3.288 0 01-3.284-3.284v-24.6h13.085a1.172 1.172 0 100-2.344H2.344v-3.28h48.985v2.333H32.308a7 7 0 00-6.991 6.991v9.808a7 7 0 006.991 6.991h1.465v3.426a1.172 1.172 0 002 .829l4.254-4.255h11.3v4.1a3.288 3.288 0 01-3.282 3.285H31.351a1.172 1.172 0 100 2.344h16.694a5.634 5.634 0 005.628-5.628v-4.133A7 7 0 0060 31.795v-9.807a7 7 0 00-6.327-6.959zm-35.18 36.9l3.879.773a3.348 3.348 0 012.685 2.931l.22 2.013H2.485l.215-2.009a3.348 3.348 0 012.684-2.932l3.88-.773a6.94 6.94 0 009.224 0zm-6.874-1.184a3.182 3.182 0 00.741-1.838 3.41 3.41 0 003.041 0 3.183 3.183 0 00.742 1.838 4.605 4.605 0 01-4.524 0zm7.7-7.829a2.081 2.081 0 01-.8 1.515l-3.937 2.25c-.022.012-.043.026-.064.039a1.113 1.113 0 01-1.275 0l-.063-.039-3.925-2.247a2.083 2.083 0 01-.808-1.515v-4.59a5.417 5.417 0 001.888.338h8.979v4.252zm-12.081-9.7v-2.58a3.831 3.831 0 001.329.245h9.957a2 2 0 012 1.948v2.589c0 .593-.121.743-.135.758-.047.052-.253.14-.721.14h-9.333a3.1 3.1 0 01-3.101-3.093zm-4.89-22.9V5.859a3.519 3.519 0 013.511-3.515h41.955a3.519 3.519 0 013.515 3.515v4.461H2.344zm55.308 21.479a4.653 4.653 0 01-4.648 4.648H39.542a1.172 1.172 0 00-.829.343l-2.6 2.6v-1.771a1.172 1.172 0 00-1.172-1.172h-2.633a4.653 4.653 0 01-4.648-4.648v-9.807a4.653 4.653 0 014.648-4.648h20.7a4.653 4.653 0 014.648 4.648v9.808z"/></g></g><g data-name="Group 924"><g data-name="Group 923"><path data-name="Path 95" d="M33.19 22.661a4.277 4.277 0 104.277 4.277 4.282 4.282 0 00-4.277-4.277zm0 5.7a1.426 1.426 0 111.426-1.426 1.427 1.427 0 01-1.426 1.428z" fill="#5064f6"/></g></g><g data-name="Group 926"><g data-name="Group 925"><path data-name="Path 96" d="M42.296 22.661a4.277 4.277 0 104.277 4.277 4.282 4.282 0 00-4.277-4.277zm0 5.7a1.426 1.426 0 111.426-1.426 1.427 1.427 0 01-1.426 1.428z" fill="#5064f6"/></g></g><g data-name="Group 928"><g data-name="Group 927"><path data-name="Path 97" d="M51.306 22.661a4.277 4.277 0 104.277 4.277 4.282 4.282 0 00-4.277-4.277zm0 5.7a1.426 1.426 0 111.426-1.426 1.427 1.427 0 01-1.426 1.428z" fill="#5064f6"/></g></g><g data-name="Group 930"><g data-name="Group 929"><path data-name="Path 98" d="M20.92 16.221a1.424 1.424 0 10.418 1.008 1.436 1.436 0 00-.418-1.008z"/></g></g></svg>