<svg xmlns="http://www.w3.org/2000/svg" width="60" height="52.969"><path data-name="info (1)" d="M57.656 22.5A2.344 2.344 0 0060 20.156V2.344A2.344 2.344 0 0057.009.091c-2.715.78-6.175.56-10.556.281C43.71.2 40.6 0 37.031 0A9.353 9.353 0 0030 3.184 9.353 9.353 0 0022.969 0c-3.57 0-6.679.2-9.422.372-4.381.279-7.841.5-10.556-.281A2.344 2.344 0 000 2.344v38.882a9.375 9.375 0 009.375 9.4h18.281a2.344 2.344 0 104.687 0h18.282A9.386 9.386 0 0060 41.25v-9.375a2.344 2.344 0 10-4.687 0 4.693 4.693 0 01-4.687 4.688H33.515a5.86 5.86 0 00-1.172.118V9.375a4.693 4.693 0 014.687-4.687c3.421 0 6.452.193 9.125.363a55.254 55.254 0 009.156.118v14.987a2.344 2.344 0 002.345 2.344zM4.687 5.169a55.267 55.267 0 009.156-.118c2.673-.17 5.7-.363 9.125-.363a4.693 4.693 0 014.687 4.687V36.68a5.861 5.861 0 00-1.172-.118H9.375a4.693 4.693 0 01-4.687-4.687zm4.688 40.768a4.687 4.687 0 01-4.687-4.705v-1.243a9.315 9.315 0 004.687 1.261h17.109a1.173 1.173 0 011.172 1.172v3.516zm24.14-4.687h17.11a9.314 9.314 0 004.688-1.261v1.261a4.693 4.693 0 01-4.687 4.688H32.343v-3.516a1.173 1.173 0 011.172-1.172zm12.774-21.328v10.312a2.344 2.344 0 01-4.687 0V19.922a2.344 2.344 0 014.688 0zm0-8.086a2.344 2.344 0 11-2.344-2.344 2.344 2.344 0 012.344 2.344z"/></svg>