<svg height="512" viewBox="0 0 480 480" width="512" xmlns="http://www.w3.org/2000/svg"><path d="M393.75 424.99v39.26c0 4.42-3.58 8-8 8h-292c-4.42 0-8-3.58-8-8v-39.26c0-31.73 19.86-58.89 47.85-69.64 3.75-9.67 2.05-5.3 7.65-19.74 3.79-9.78 15.82-13.33 24.31-7.17l19.24 13.96c10.26-7.52 17.2-19.87 17.2-33.57V302l.15-.38c-35.9-14.86-61.15-50.23-61.15-91.5V207c-14.255 0-25-11.265-25-24.54V112C116 54.56 162.56 8 220 8h41c57.44 0 104 46.56 104 104v69c0 14.36-11.64 26-26 26v3.12c0 41.27-25.25 76.64-61.15 91.5l.15.38v6.83c0 13.7 6.72 25.84 16.98 33.36 4.67-3.39 8.29-6.01 18.96-13.75 8.49-6.16 20.52-2.61 24.31 7.18 5.64 14.54 4 10.3 7.65 19.73 27.98 10.74 47.85 37.89 47.85 69.64z" fill="#ffd6a6"/><path d="M393.749 424.991v39.26a8 8 0 01-8 8h-292a8 8 0 01-8-8v-39.26c0-31.734 19.856-58.895 47.85-69.64 3.746-9.669 2.053-5.3 7.65-19.74 3.79-9.78 15.82-13.33 24.31-7.17 24.488 17.766 11.878 8.619 60.1 43.59 8.4 6.1 19.78 6.1 28.18 0 48.279-35.012 35.604-25.819 60.1-43.59 8.49-6.16 20.52-2.61 24.31 7.18 5.639 14.538 3.997 10.301 7.65 19.73 27.978 10.738 47.85 37.887 47.85 69.64z" fill="#fe4f60"/><path d="M339 210.12c0 54.696-44.348 99-99 99-54.65 0-99-44.302-99-99v-64.89c0-20.409 23.614-30.437 38.5-17.6 16.646 14.342 36.609 23.764 57.994 27.6 5.891 1.057 10.833-4.521 9.035-10.23a35.006 35.006 0 01-1.592-11.937c.249-6.167 7.232-9.684 12.372-6.268 21.793 14.481 47.192 21.932 73.583 21.566a7.993 7.993 0 018.107 7.997L339 210.12z" fill="#ffdfba"/><path d="M365 112v69c0 14.36-11.64 26-26 26v-50.643a7.993 7.993 0 00-8.107-7.997c-26.377.366-51.78-7.077-73.583-21.566-5.14-3.416-12.123.102-12.372 6.268a35.01 35.01 0 001.592 11.937c1.799 5.709-3.143 11.287-9.035 10.23-21.363-3.832-41.331-13.243-57.994-27.6-14.885-12.836-38.5-2.811-38.5 17.6V207c-14.255 0-25-11.265-25-24.54V112C116 54.562 162.562 8 220 8h41c57.438 0 104 46.562 104 104z" fill="#42434d"/><path d="M279.13 318.42c-24.637 10.313-51.712 11.113-78.26 0 1.356-5.626 1.13-9.27 1.13-16.42l.15-.37c24.082 9.996 51.571 10.016 75.7 0l.15.37c0 7.153-.226 10.796 1.13 16.42z" fill="#f7c388"/><path d="M178.129 337.56c-6.26 3.619-6.644 7.435-14.53 27.79-27.977 10.738-47.85 37.887-47.85 69.64v37.26h-22a8 8 0 01-8-8v-39.26c0-31.734 19.856-58.895 47.85-69.64 4.355-11.242 7.664-19.777 7.651-19.744 3.792-9.783 15.816-13.328 24.309-7.166z" fill="#ff6d7a"/><path d="M301.369 337.561c6.26 3.619 6.644 7.435 14.53 27.79 27.977 10.738 47.85 37.887 47.85 69.64v37.26h22a8 8 0 008-8v-39.26c0-31.734-19.856-58.895-47.85-69.64-4.355-11.242-7.664-19.777-7.651-19.744-3.792-9.783-15.816-13.328-24.309-7.166z" fill="#e84857"/><path d="M357.15 360.41c-42.677 10.874-39.645 10.21-41.07 10.21-3.57 0-6.82-2.41-7.74-6.02-1.09-4.29 1.49-8.64 5.77-9.73l29.08-7.41 2.96 7.64c3.83 1.47 7.51 3.25 11 5.31z" fill="#e84857"/><path d="M171.409 364.517a7.998 7.998 0 01-7.74 6.02c-1.427 0 1.587.659-41.07-10.21 3.49-2.06 7.17-3.84 11-5.31l2.96-7.64 29.08 7.41c4.28 1.09 6.86 5.44 5.77 9.73z" fill="#fe4f60"/><path d="M217.598 274.089c16.271 10.175 3.429 35.144-14.381 27.996C166.595 287.387 141 251.7 141 210.15c0-69.645-.02-65.525.041-66.571 1.125-19.154 29.951-17.951 29.954 1.237.002 9.814.005 24.196.005 45.334 0 36.499 19.188 66.799 46.598 83.939z" fill="#ffebd2"/><path d="M295.943 14.016c13.138 4.686 9.637 24.069-4.312 23.986C291.115 37.999 250.516 38 250 38c-52.243 0-95.49 38.521-102.87 88.709a11.907 11.907 0 01-2.052 5.108c-2.503 3.562-4.029 7.953-4.079 12.943v40.381c0 15.334-25 18.715-25-2.681V112C116 54.562 162.562 8 220 8h41c12.258 0 24.022 2.121 34.943 6.016z" fill="#4d4e59"/><path d="M402 424.743V472a8 8 0 01-16 0v-47.257a66.452 66.452 0 00-16.852-44.266 8.001 8.001 0 01.65-11.295 8.004 8.004 0 0111.295.65A82.44 82.44 0 01402 424.743zm-189.424-17.548a8.001 8.001 0 00-10.052 5.192c-5.181 16.253-14.552 31.421-27.938 43.722-5.382 4.947-1.817 13.891 5.416 13.891a7.973 7.973 0 005.412-2.109c14.706-13.516 26.029-30.797 32.354-50.644a8 8 0 00-5.192-10.052zm64.9 5.193a7.998 7.998 0 00-10.052-5.192 8 8 0 00-5.192 10.052c5.971 18.734 16.789 36.339 32.354 50.644a8 8 0 0010.827-11.782c-13.379-12.297-22.754-27.462-27.937-43.722zM373 182.46V112C373 50.243 322.757 0 261 0h-41c-61.757 0-112 50.243-112 112v70.46c0 15.303 10.707 28.165 25.077 31.62 1.494 40.859 26.003 75.946 60.923 92.643v2.107c0 8.805-3.355 16.979-9.35 23.145l-14.143-10.258c-12.745-9.244-30.778-3.932-36.469 10.756l-6.406 16.531C98.073 361.854 78 391.213 78 424.743V472a8 8 0 0016 0v-47.257c0-26.626 16.241-50.985 40.636-61.326 29.665 7.557 27.878 7.204 29.28 7.204a8.004 8.004 0 007.747-6.027 8 8 0 00-5.778-9.727l-21.267-5.417 4.338-11.196c1.896-4.892 7.905-6.67 12.157-3.585l60.099 43.588a31.932 31.932 0 0037.575-.001l60.098-43.587c4.247-3.08 10.259-1.311 12.156 3.587l4.337 11.195-21.264 5.417a7.999 7.999 0 00-5.778 9.727 7.998 7.998 0 009.727 5.777c32.466-8.27 30.975-7.804 30.975-7.804a8 8 0 004.57-10.35l-7.647-19.741c-5.686-14.676-23.715-20.013-36.47-10.759l-14.134 10.25a33.489 33.489 0 01-3.782-4.682 8.001 8.001 0 00-13.308 8.883 49.307 49.307 0 004.047 5.259l-32.921 23.876a15.968 15.968 0 01-18.788 0L197.66 341.41c6.981-7.947 11.295-18.004 12.16-28.626a106.678 106.678 0 0030.181 4.341c59.931 0 107-49.179 107-106.391V180.25a8 8 0 00-16 0v29.875c0 50.178-40.822 91-91 91s-91-40.822-91-91c0-.618-.001-64.631.002-65.286.124-12.917 15.401-19.662 25.27-11.152 22.623 19.503 50.512 29.928 78.333 31.304 6.89.36 10.966-7.678 6.6-13.04-4.087-5.02-6.533-11.575-6.276-18.456 26.323 17.482 56.857 24.726 86.672 22.483a8 8 0 007.377-8.578c-.332-4.405-4.173-7.721-8.578-7.377-30.12 2.275-60.562-6.395-85.402-26.27-4.092-3.273-10.182-1.789-12.31 3-4.184 9.421-5.049 20.272-1.799 30.592-20.169-3.639-38.755-12.487-54.17-25.777-20.17-17.386-51.461-3.372-51.716 23.12l-.002 52.409c-5.344-2.772-9.001-8.288-9.001-14.637V112c0-52.935 43.065-96 96-96h41c52.935 0 96 43.065 96 96v70.46a8 8 0 0015.999 0z"/></svg>