<svg height="512" viewBox="0 0 480 480" width="512" xmlns="http://www.w3.org/2000/svg"><path d="M365 365.72V107.5C365 52.55 320.45 8 265.5 8h-50C160.55 8 116 52.55 116 107.5v257.45c-18.21 13.6-30 35.319-30 59.79V464c0 4.42 3.58 8 8 8h292c4.42 0 8-3.58 8-8v-39.26c0-24.02-11.36-45.39-29-59.02z" fill="#ffd6a6"/><path d="M141 210.13c0 41.27 25.25 76.64 61.15 91.5l-.15.37v6.83c0 22.901-18.596 41.34-41.43 41.34-16.71 0-32.13 5.5-44.57 14.78V107.5C116 52.548 160.548 8 215.5 8h50c54.952 0 99.5 44.548 99.5 99.5v258.22c-12.6-9.75-28.41-15.55-45.57-15.55-22.919 0-41.43-18.523-41.43-41.34V302l-.15-.37c35.9-14.86 61.15-50.23 61.15-91.5v-56.584c0-4.978-4.498-8.747-9.399-7.876-12.629 2.244-25.257 4.484-37.886 6.728-3.216.572-6.362-1.41-7.166-4.576a57.036 57.036 0 00-6.328-15.253c-2.777-4.632-9.35-3.79-11.148.933-2.321 6.095-4.763 12.3-7.199 18.335a6.286 6.286 0 01-5.616 3.915 414.267 414.267 0 01-103.544-9.486c-4.992-1.101-9.713 2.7-9.713 7.812z" fill="#42434d"/><path d="M339 210.13c0 54.696-44.348 99-99 99-54.65 0-99-44.302-99-99v-56.052c0-5.112 4.721-8.913 9.713-7.812a414.244 414.244 0 00103.544 9.486 6.286 6.286 0 005.616-3.915 998.279 998.279 0 007.199-18.335c1.827-4.799 8.426-5.447 11.077-1.05a56.99 56.99 0 016.399 15.37c.805 3.166 3.95 5.148 7.166 4.576 12.629-2.244 25.257-4.485 37.886-6.728 4.901-.871 9.399 2.898 9.399 7.876L339 210.13z" fill="#ffdfba"/><path d="M394 424.74V464c0 4.42-3.58 8-8 8H94c-4.42 0-8-3.58-8-8v-39.26c0-41.184 33.387-74.57 74.57-74.57 6.13 0 11.95-1.33 17.18-3.71l.25.54 57.1 44.21a8.014 8.014 0 009.8 0L302 347l.25-.54c13.973 6.359 19.447 1.341 37.74 6.58 31.19 8.93 54.01 37.65 54.01 71.7z" fill="#ffa4b8"/><path d="M216.372 273.351c16.346 10.583 3.13 35.614-14.812 28.045C166.027 286.404 141 251.215 141 210.13v-56.05c0-5.11 4.72-8.92 9.71-7.81 2.431.537 4.924 1.064 7.48 1.579 7.441 1.498 12.81 8.018 12.81 15.608v26.673c0 33.728 17.009 64.857 45.372 83.221z" fill="#ffebd2"/><path d="M279.13 318.42c-24.637 10.313-51.712 11.113-78.26 0 1.356-5.626 1.13-9.27 1.13-16.42l.15-.37c24.082 9.996 51.571 10.016 75.7 0l.15.37c0 7.153-.226 10.796 1.13 16.42z" fill="#f7c388"/><path d="M302.973 15.297c12.188 4.959 8.15 23.053-5.005 22.733-2.018-.049-53.472-.03-52.468-.03-54.952 0-99.5 44.548-99.5 99.5 0 10.966-5 10.951-5 16.58 0 59.676-1.297 68.174 5 87.2v110.31a74.393 74.393 0 00-30 13.36V107.5C116 52.548 160.548 8 215.5 8h50c13.258 0 25.908 2.592 37.473 7.297z" fill="#4d4e59"/><path d="M194.493 359.769c4.746 3.674 2.238 11.378-3.764 11.401-42.333.158-74.729 34.149-74.729 74.57V472H94a8 8 0 01-8-8v-39.26c0-41.163 33.37-74.57 74.57-74.57 6.13 0 11.95-1.33 17.18-3.71l.25.54z" fill="#ffb1bf"/><path d="M285.507 359.769c-4.746 3.674-2.238 11.378 3.764 11.401 42.333.158 74.729 34.149 74.729 74.57V472h22a8 8 0 008-8v-39.26c0-41.163-33.37-74.57-74.57-74.57-6.13 0-11.95-1.33-17.18-3.71l-.25.54z" fill="#ff99af"/><path d="M402 424.743V472a8 8 0 01-16 0v-47.257c0-36.792-29.774-66.571-66.573-66.571-17.412 0-33.209-8.87-42.259-23.729a7.999 7.999 0 012.671-10.993 7.997 7.997 0 0110.994 2.671c6.122 10.051 16.811 16.051 28.594 16.051 45.636-.002 82.573 36.93 82.573 82.571zm-133.47-61.948L240 384.883l-48.508-37.555c10.467-8.41 17.241-20.639 18.338-34.541a106.677 106.677 0 0030.17 4.338c59.93 0 107-49.18 107-106.392V183a8 8 0 00-16 0v27.125c0 50.178-40.822 91-91 91s-91-40.822-91-91V154.08a422.662 422.662 0 00109.7 9.506 7.998 7.998 0 007.05-4.963 983.182 983.182 0 007.409-18.65c6.08 12.205 2.837 16.394 7.87 20.001a8.019 8.019 0 006.061 1.375l53.311-9.472a8 8 0 00-2.799-15.754l-45.727 8.125a64.504 64.504 0 00-15.032-26.713c-4.062-4.341-11.297-2.884-13.351 2.705a956.257 956.257 0 01-10.614 27.556 406.71 406.71 0 01-109.966-11.564c-5.056-1.24-9.911 2.593-9.911 7.769v67.353c0 38.609 22.895 77.151 61 95.37v2.107c0 18.442-14.944 33.342-33.427 33.342-12.39 0-24.889 2.736-36.573 8.519V107.5c0-50.453 41.047-91.5 91.5-91.5h50c50.453 0 91.5 41.047 91.5 91.5V324a8 8 0 0016 0V107.5C373 48.225 324.776 0 265.5 0h-50C156.224 0 108 48.225 108 107.5v253.569c-19.137 15.856-30 38.886-30 63.674V472a8 8 0 0016 0v-47.257c0-36.901 29.914-66.571 66.573-66.571 5.292 0 10.53-.837 15.564-2.497l58.966 45.651a8.001 8.001 0 009.795 0l33.427-25.879a8 8 0 00-9.795-12.652z"/></svg>