<svg height="512" viewBox="0 0 480.002 480.002" width="512" xmlns="http://www.w3.org/2000/svg"><path d="M407.521 363.48c-.232.232-23.421 23.459-23.7 23.63 6.47 11.05 10.18 23.91 10.18 37.63V464c0 4.42-3.58 8-8 8h-292c-4.42 0-8-3.58-8-8v-39.26c0-13.72 3.71-26.58 10.18-37.63-.269-.164 1.628 1.698-23.7-23.63-9.4-9.4-10.27-24.34-2.04-34.77 10.038-12.843 7.122-27.663-1.91-36.18-9.91-9.35-11.01-24.73-2.53-35.39l11.52-14.48a26.212 26.212 0 004.62-23.73l-7.44-25.23c-3.81-12.89 2.76-26.58 15.2-31.67l9.83-4.03a26.203 26.203 0 0016.27-24.25V108c0-55.23 44.77-100 100-100h48c55.227 0 100 44.758 100 100v25.75c0 10.64 6.43 20.22 16.27 24.25l9.83 4.03c12.44 5.09 19.01 18.78 15.2 31.67l-7.44 25.23a26.212 26.212 0 004.62 23.73l11.52 14.48c8.487 10.686 7.376 26.03-2.53 35.39-9.89 9.32-11.01 24.65-2.59 35.31 9.566 12.239 7.533 26.747-1.36 35.64z" fill="#ffdfba"/><path d="M72.481 363.48c.232.232 23.421 23.459 23.7 23.63-6.47 11.05-10.18 23.91-10.18 37.63V464c0 4.42 3.58 8 8 8h292c4.42 0 8-3.58 8-8v-39.26c0-13.72-3.71-26.58-10.18-37.63.269-.164-1.628 1.698 23.7-23.63 9.4-9.4 10.27-24.34 2.04-34.77-10.038-12.843-7.122-27.663 1.91-36.18 9.91-9.35 11.01-24.73 2.53-35.39l-11.52-14.48a26.212 26.212 0 01-4.62-23.73l7.44-25.23c3.81-12.89-2.76-26.58-15.2-31.67l-9.83-4.03a26.203 26.203 0 01-16.27-24.25V108c0-55.23-44.77-100-100-100h-48c-55.227 0-100 44.758-100 100v25.75c0 10.64-6.43 20.22-16.27 24.25l-9.83 4.03c-12.44 5.09-19.01 18.78-15.2 31.67l7.44 25.23c2.42 8.19.69 17.05-4.62 23.73l-11.52 14.48c-8.487 10.686-7.376 26.03 2.53 35.39 9.89 9.32 11.01 24.65 2.59 35.31-9.566 12.239-7.533 26.747 1.36 35.64z" fill="#ffdfba"/><path d="M148.094 186.836a7.994 7.994 0 00-7.093 7.946v15.349c0 41.26 25.25 76.64 61.15 91.5l-.15.37v6.83c0 22.742-18.332 41.074-40.95 41.34-28.072 0-51.915 14.815-64.87 36.94-.279-.171-23.468-23.398-23.7-23.63-9.4-9.4-10.27-24.34-2.04-34.77 10.038-12.843 7.122-27.663-1.91-36.18-9.91-9.35-11.01-24.73-2.53-35.39l11.52-14.48a26.212 26.212 0 004.62-23.73l-7.44-25.23c-3.81-12.89 2.76-26.58 15.2-31.67l9.83-4.03a26.203 26.203 0 0016.27-24.25V108c0-55.228 44.772-100 100-100h48c55.227 0 100 44.759 100 100v25.75c0 10.64 6.43 20.22 16.27 24.25l9.83 4.03c12.44 5.09 19.01 18.78 15.2 31.67l-7.44 25.23a26.212 26.212 0 004.62 23.73l11.52 14.48c8.486 10.685 7.378 26.029-2.53 35.39-9.236 8.703-11.782 23.55-1.91 36.18 8.23 10.43 7.36 25.37-2.04 34.77-.232.232-23.421 23.459-23.7 23.63-12.848-21.942-36.593-36.94-64.87-36.94-22.609-.266-40.95-18.587-40.95-41.34V302l-.15-.38c35.9-14.86 61.15-50.22 61.15-91.49v-49.313a7.98 7.98 0 00-5.256-7.513c-17.4-6.292-32.091-18.416-41.536-34.614-2.759-4.731-9.384-5.284-12.962-1.137-33.479 38.805-79.948 63.436-131.153 69.283z" fill="#fe4f60"/><path d="M333.745 153.305a7.978 7.978 0 015.256 7.513v49.313c0 41.27-25.25 76.63-61.15 91.49-64.937 26.955-136.85-20.93-136.85-91.49v-15.349a7.994 7.994 0 017.093-7.946c51.118-5.837 97.617-30.411 131.153-69.281 3.578-4.147 10.203-3.595 12.962 1.137 9.436 16.183 24.117 28.314 41.536 34.613z" fill="#ffebd2"/><path d="M394.001 424.74V464c0 4.42-3.58 8-8 8h-292c-4.42 0-8-3.58-8-8v-39.26c0-41.151 33.358-74.57 74.57-74.57a41.373 41.373 0 0017.18-3.71l.25.54 57.1 44.21a8.014 8.014 0 009.8 0l57.1-44.21.25-.54c5.1 2.32 10.75 3.64 16.7 3.71 42.818 0 75.05 34.345 75.05 74.57z" fill="#42434d"/><path d="M299.131 14.352c12.78 4.792 9.117 23.73-4.532 23.65-.497-.003-48.1-.002-48.598-.002-55.228 0-100 44.772-100 100v25.75c0 10.64-6.43 20.22-16.27 24.25l-9.83 4.03c-12.44 5.09-19.01 18.78-15.2 31.67l7.44 25.23c2.42 8.19.69 17.05-4.62 23.73l-11.52 14.48c-8.48 10.66-7.38 26.04 2.53 35.39 9.873 9.311 11.019 24.628 2.59 35.31-7.06 9.033-7.829 18.884-4.241 27.329.407.959-.817 1.842-1.585 1.087-4.284-4.214-22.608-22.57-22.814-22.775-8.717-8.717-11.085-23.198-1.36-35.64 8.438-10.692 7.274-26.009-2.59-35.31-9.91-9.35-11.01-24.73-2.53-35.39l11.52-14.48a26.212 26.212 0 004.62-23.73l-7.44-25.23c-3.81-12.89 2.76-26.58 15.2-31.67l9.83-4.03a26.203 26.203 0 0016.27-24.25V108c0-55.228 44.772-100 100-100h48a99.935 99.935 0 0135.13 6.352z" fill="#ff6d7a"/><path d="M217.471 274.121c16.194 10.253 3.539 35.069-14.254 27.943-36.544-14.637-62.216-50.34-62.216-91.934v-15.35c0-4.07 3.05-7.48 7.09-7.94 3.715-.428 7.72-.989 11.967-1.73 5.63-.982 10.919 3.066 11.383 8.762 3.015 37.04 21.238 64.552 46.03 80.249z" fill="#fff3e4"/><path d="M190.796 356.91c5.105 3.953 2.403 12.234-4.054 12.26-42.537.171-74.742 34.319-74.742 74.57V472H94a8 8 0 01-8-8v-39.26c0-40.46 32.461-74.57 75.05-74.57 5.95-.07 11.6-1.39 16.7-3.71l.25.54z" fill="#4d4e59"/><path d="M289.206 356.91c-5.105 3.953-2.403 12.234 4.054 12.26 42.537.171 74.742 34.319 74.742 74.57V472h18a8 8 0 008-8v-39.26c0-40.46-32.461-74.57-75.05-74.57-5.95-.07-11.6-1.39-16.7-3.71l-.25.54z" fill="#2c2c33"/><path d="M235.104 391.208a8.001 8.001 0 009.795 0L302.001 347l.25-.54c5.1 2.32 10.75 3.64 16.7 3.71L284.001 472h-88l-34.95-121.83c5.95-.07 11.6-1.39 16.7-3.71l.25.54z" fill="#d6f4fc"/><path d="M177.617 369.71c-2.985.333-6.361.913-10.385 1.99l-6.18-21.53c5.95-.07 11.6-1.39 16.7-3.71l.25.54 4.909 3.802c7.52 5.825 4.159 17.853-5.294 18.908z" fill="#e8f8fc"/><path d="M302.386 369.71c2.985.333 6.361.913 10.385 1.99l6.18-21.53c-5.95-.07-11.6-1.39-16.7-3.71l-.25.54-4.909 3.802c-7.521 5.825-4.16 17.853 5.294 18.908z" fill="#bdeffc"/><path d="M279.131 318.42c-24.637 10.313-51.712 11.113-78.26 0 1.356-5.626 1.13-9.27 1.13-16.42l.15-.37c24.082 9.996 51.571 10.016 75.7 0l.15.37c0 7.153-.226 10.796 1.13 16.42z" fill="#ffd6a6"/><path d="M413.176 369.138l-19.473 19.473c5.419 11.117 8.297 23.401 8.297 36.132V472a8 8 0 01-16 0v-47.257c0-35.015-26.92-63.564-61.09-66.332l-33.22 115.795a8.004 8.004 0 01-7.686 5.796c-5.319 0-9.159-5.1-7.694-10.208l32.362-112.803c-13.017-2.853-24.364-10.825-31.503-22.546a8 8 0 012.67-10.994 8 8 0 0110.994 2.67c5.819 9.553 15.767 15.436 26.854 15.995a7.95 7.95 0 013.064.088c24.978.391 48.511 11.843 64.299 32.433l16.812-16.812c6.528-6.528 7.137-16.916 1.416-24.162-12.686-16.058-9.461-35.485 2.702-46.953 6.831-6.44 7.604-17.24 1.759-24.587l-11.516-14.477a34.245 34.245 0 01-6.039-30.98l7.445-25.23a18.163 18.163 0 00-10.562-22.006l-9.826-4.026C364.338 160.116 356 147.693 356 133.753v-25.749C356 57.271 314.729 16 264 16h-48c-50.729 0-92 41.273-92 92.004v25.749c0 13.94-8.337 26.363-21.24 31.651l-9.827 4.026a18.164 18.164 0 00-10.562 22.006l7.445 25.23a34.242 34.242 0 01-6.039 30.98l-11.516 14.477c-5.844 7.347-5.071 18.146 1.759 24.587 12.184 11.487 15.373 30.91 2.7 46.955-5.72 7.245-5.111 17.632 1.417 24.16l16.812 16.812c15.478-20.185 39.207-32.465 65.621-32.465 18.463 0 33.429-14.877 33.429-33.341v-2.102c-33.067-15.745-55.181-46.937-59.994-81.877a8 8 0 0115.85-2.184c6.161 44.728 44.914 78.457 90.144 78.457 50.178 0 91-40.822 91-91v-49.317c-18.703-6.779-35.017-19.818-45.674-38.044-38.579 44.82-93.665 70.894-152.006 73.229a8 8 0 01-.639-15.987c57.611-2.304 111.893-29.584 147.959-76.859 3.768-4.941 11.505-3.872 13.796 1.901 8.398 21.157 26.034 36.369 46.751 42.256 3.048.854 5.52 3.603 5.783 7.088.05.656.038 56.23.027 56.571-.546 70.5-68.621 121.934-137.165 101.802-1.04 13.255-7.35 25.734-18.34 34.562l48.508 37.555 28.53-22.087a8 8 0 019.795 12.651l-30.325 23.477V456a8 8 0 01-16 0v-57.076l-55.864-43.249c-8.677 2.862-16.325 2.498-15.563 2.498-36.794-.001-66.573 29.773-66.573 66.571V472a8 8 0 01-16 0v-47.257c0-12.731 2.878-25.015 8.297-36.132l-19.473-19.473c-11.395-11.395-14.404-30.522-1.979-46.254 5.891-7.462 5.117-18.01-1.802-24.533-12.832-12.099-14.283-32.387-3.304-46.189l11.516-14.478a18.227 18.227 0 003.214-16.491l-7.445-25.23a34.12 34.12 0 0119.841-41.34l9.827-4.026a18.143 18.143 0 0011.306-16.845v-25.749C108.001 48.451 156.45 0 216.001 0h48c59.551 0 108 48.449 108 108v25.753a18.145 18.145 0 0011.307 16.846l9.826 4.025a34.12 34.12 0 0119.842 41.34l-7.445 25.23a18.227 18.227 0 003.214 16.491l11.516 14.477c10.979 13.802 9.527 34.091-3.304 46.189-6.919 6.523-7.693 17.071-1.801 24.535 12.219 15.467 9.63 34.643-1.98 46.252zM179.7 384.826c-1.201-4.252-5.621-6.728-9.873-5.525a8 8 0 00-5.525 9.873l24 85a8 8 0 0015.398-4.348z"/></svg>