<svg height="512" viewBox="0 0 480 480" width="512" xmlns="http://www.w3.org/2000/svg"><path d="M396.501 381.24V131c0-33.14-26.86-60-60-60-5.139 0-5.982.258-7.12-.88-.54-.54-.88-1.29-.88-2.12 0-33.14-26.86-60-60-60h-39c-61.98 0-112 50.27-112 112v259.88c-9.42 12.48-15 28.02-15 44.86V464c0 4.42 3.58 8 8 8h292c4.42 0 8-3.58 8-8v-39.26c0-16.24-5.19-31.26-14-43.5z" fill="#c79a83"/><path d="M229.501 8h39c33.137 0 60 26.863 60 60a3 3 0 003 3h5c33.137 0 60 26.863 60 60v250.24c-13.703-19.07-35.957-31.07-60.57-31.07-22.872 0-41.43-18.479-41.43-41.34V302l-.15-.37c35.9-14.86 61.15-50.23 61.15-91.5v-40.89c0-39.77-32.24-72.01-72.01-72.01h-44.56c-45.575 38.197-70.166 90.865-74.47 149.43 9.87 24.85 29.52 44.75 54.19 54.97l-.15.37v6.83c0 16.99-10.25 31.56-24.9 37.92-14.917 6.486-21.862.191-43.1 8.3-13.21 5.04-24.63 13.73-33 24.83V120c0-61.725 50.015-112 112-112z" fill="#42434d"/><path d="M355.501 169.24v40.89c0 54.696-44.348 99-99 99-41.459 0-77.397-25.603-92.04-62.47 4.305-58.583 28.908-111.243 74.47-149.43h44.57c39.76 0 72 32.24 72 72.01zm55 255.5V464c0 4.42-3.58 8-8 8h-292c-4.42 0-8-3.58-8-8v-39.26c0-31.7 19.78-58.78 47.68-69.57 21.39-8.28 28.39-1.88 43.42-8.42v.01c10.95 24.91 35.7 41.06 62.9 41.06s51.95-16.15 62.9-41.06v-.01c14.8 6.43 21.27.3 42.17 7.95 28.55 10.45 48.93 37.87 48.93 70.04z" fill="#e0b7a3"/><path d="M172.941 198.78c.47-1.66.98-3.33 1.51-5-.52 1.66-1.03 3.32-1.51 5zm13.28-34.47c.76-1.57 1.56-3.14 2.38-4.71-.81 1.56-1.61 3.13-2.38 4.71zm176.28 190.74z" fill="#c79a83"/><path d="M270.52 8.033c19.411.642 18.774 29.822-.647 29.935-3.208.019-6.655.032-10.372.032-61.989 0-112 50.277-112 112v206.27a74.892 74.892 0 00-30 23.61V120c0-61.724 50.013-112 112-112 42.616 0 39.593-.014 41.019.033z" fill="#4d4e59"/><path d="M295.631 318.42c-24.637 10.313-51.712 11.113-78.26 0 1.356-5.626 1.13-9.27 1.13-16.42l.15-.37c24.082 9.996 51.571 10.016 75.7 0l.15.37c0 7.153-.226 10.796 1.13 16.42z" fill="#a07765"/><path d="M172.941 198.78c.47-1.66.98-3.33 1.51-5-.52 1.66-1.03 3.32-1.51 5zm13.28-34.47c.76-1.57 1.56-3.14 2.38-4.71-.81 1.56-1.61 3.13-2.38 4.71z" fill="#c79a83"/><path d="M243.294 308.255c-35.891-4.792-65.826-28.845-78.834-61.595 1.55-21.07 6.06-45.79 16.62-71.04-3.71 14.54-5.69 28.44-6.62 41.04 12.411 31.247 40.257 54.615 74.022 60.832 9.259 1.705 14.792 11.315 11.815 20.246-2.383 7.151-9.531 11.515-17.003 10.517z" fill="#f2d1c2"/><path d="M362.501 355.05zm-70.36 22.77c4.31 1.52 8.96 2.35 13.79 2.35 41.125 0 74.57 33.336 74.57 74.57V472h22a8 8 0 008-8v-39.26c0-41.228-33.438-74.57-74.57-74.57-5.87 0-11.47-1.22-16.53-3.42v.01a68.582 68.582 0 01-27.26 31.06z" fill="#c79a83"/><path d="M220.861 377.82a41.424 41.424 0 01-13.79 2.35c-41.125 0-74.57 33.336-74.57 74.57V472h-22a8 8 0 01-8-8v-39.26c0-41.228 33.438-74.57 74.57-74.57 5.87 0 11.47-1.22 16.53-3.42v.01a68.582 68.582 0 0027.26 31.06z" fill="#f2d1c2"/><path d="M361.571 354.7c-.104 1.962-.07-7.591-.07 117.3h-211V356.02l-.32-.85c21.389-8.284 28.389-1.885 43.42-8.42v.01c10.95 24.91 35.7 41.06 62.9 41.06s51.95-16.15 62.9-41.06v-.01c14.796 6.433 21.273.296 42.17 7.95z" fill="#42434d"/><path d="M210.85 370.438c3.698 3.282 1.806 9.732-3.779 9.732-22.251 0-42.646 9.797-56.57 25.98v-50.13l-.32-.85c21.389-8.284 28.389-1.885 43.42-8.42v.01a68.486 68.486 0 0017.249 23.678z" fill="#4d4e59"/><path d="M361.501 405.02c-13.66-15.26-33.51-24.85-55.57-24.85-4.83 0-9.48-.83-13.79-2.35 12.962-7.828 22.049-19.192 27.26-31.06v-.01c14.639 6.406 21.559.339 42.17 7.95-.08 1.51-.08-3.78-.07 50.32z" fill="#2c2c33"/><path d="M418.501 424.743V472a8 8 0 01-16 0v-47.257c0-24.523-13.175-45.886-33-57.503V472a8 8 0 01-16 0V360.523a66.88 66.88 0 00-17.573-2.351c-17.411 0-33.209-8.87-42.258-23.729a7.998 7.998 0 012.671-10.993c3.771-2.301 8.694-1.104 10.993 2.671 6.122 10.051 16.812 16.051 28.594 16.051 45.637-.002 82.573 36.93 82.573 82.571zm-309-213.057V335a8 8 0 0016 0V185.655c11.341-15.819 24.822-30.164 40.023-42.428a8.001 8.001 0 00-10.047-12.453c-10.852 8.755-20.883 18.504-29.977 29.042 0-44.074-.037-41.065.105-44.359 21.119-9.73 40.953-23.21 58.55-40.798a8 8 0 00.003-11.313 7.997 7.997 0 00-11.313-.003 186.377 186.377 0 01-44.623 32.978C138.97 50.345 180.299 16 229.501 16h39c28.673 0 52 23.327 52 52v3a8 8 0 008 8h8c28.673 0 52 23.327 52 52v197a8 8 0 0016 0V131c0-37.221-30.161-68-68.182-68-2.569-35.169-32.005-63-67.818-63h-39c-60.936 0-111.406 45.655-119.008 104.554-13.448 5.41-27.559 9.281-42.21 11.54a8 8 0 001.209 15.907c1.65 0 20.014-2.733 40.01-9.936V180.6c-24.903 36.431-38.675 78.797-39.997 123.162a7.999 7.999 0 007.758 8.234c4.314.156 8.101-3.27 8.235-7.758.966-32.462 9.057-63.805 24.003-92.552zm186.115 153.83c-28.753 24.205-72.254 16.773-91.341-15.47 12.235-8.079 20.806-21.457 22.056-37.249 69.469 20.37 137.17-32.693 137.17-102.064v-41.497c0-44.114-35.888-80.003-80-80.003h-20.449a215.476 215.476 0 018.54-5.358 8 8 0 002.784-10.966 8 8 0 00-10.966-2.784c-82.837 49.287-118.79 140.279-104.82 233.066a8.002 8.002 0 007.901 6.81c4.887 0 8.652-4.339 7.92-9.192-10.809-71.79 10.148-146.201 67.448-195.575h41.642c35.29 0 64 28.712 64 64.003v40.889c0 72.931-81.864 116.002-141.874 75.464a8 8 0 10-8.956 13.257 106.885 106.885 0 0013.83 7.914v2.069c0 8.913-3.476 17.287-9.788 23.581-11.192 11.161-25.298 9.761-23.641 9.761-45.637 0-82.571 36.93-82.571 82.571V472a8 8 0 0016 0v-47.257c0-24.09 12.712-45.144 32-56.909V472a8 8 0 0016 0V360.799c13.632-3.937 20.331-1.435 31.079-4.219 23.508 42.011 79.478 52.207 116.341 21.176a8 8 0 00-10.305-12.24z"/></svg>