<svg height="512pt" viewBox="0 0 512 512.00001" width="512pt" xmlns="http://www.w3.org/2000/svg"><path d="m305.035156 354.976562 141.175782 141.179688c7.8125 7.808594 20.476562 7.808594 28.285156 0l21.652344-21.652344c7.808593-7.808594 7.808593-20.472656 0-28.285156l-141.175782-141.175781zm0 0" fill="#ff5d5d"/><path d="m390.976562 341.042969-49.9375 49.9375-36-36.003907 49.9375-49.933593zm0 0" fill="#d8d8e4"/><path d="m386.007812 198.003906c0 103.832032-84.171874 188.003906-188.003906 188.003906-103.832031 0-188.003906-84.171874-188.003906-188.003906 0-103.832031 84.171875-188.003906 188.003906-188.003906 103.832032 0 188.003906 84.171875 188.003906 188.003906zm0 0" fill="#72d8ff"/><path d="m330.007812 198.003906c0 72.902344-59.101562 132.003906-132.003906 132.003906s-132.003906-59.101562-132.003906-132.003906 59.101562-132.003906 132.003906-132.003906 132.003906 59.101562 132.003906 132.003906zm0 0" fill="#fff"/><path d="m188.09375 253.25-52.757812-52.757812 28.285156-28.285157 24.472656 24.472657 58.128906-58.128907 28.285156 28.285157zm0 0" fill="#ff5d5d"/><path d="m188.09375 263.25c2.5625 0 5.121094-.976562 7.074219-2.929688l86.410156-86.414062c1.875-1.875 2.929687-4.417969 2.929687-7.070312 0-2.652344-1.054687-5.195313-2.929687-7.070313l-28.285156-28.285156c-3.90625-3.902344-10.234375-3.902344-14.140625 0l-51.058594 51.058593-17.402344-17.40625c-1.875-1.875-4.417968-2.925781-7.070312-2.925781s-5.195313 1.050781-7.070313 2.925781l-28.289062 28.285157c-1.875 1.878906-2.925781 4.421875-2.925781 7.074219 0 2.652343 1.050781 5.195312 2.925781 7.070312l52.761719 52.757812c1.953124 1.953126 4.511718 2.929688 7.070312 2.929688zm-24.472656-76.902344 17.402344 17.40625c1.875 1.875 4.417968 2.925782 7.070312 2.925782s5.195312-1.050782 7.070312-2.925782l51.058594-51.058594 14.140625 14.140626-72.269531 72.273437-38.617188-38.617187zm0 0"/><path d="m111.074219 283.609375c-3.882813-3.929687-10.214844-3.96875-14.144531-.089844-3.929688 3.882813-3.96875 10.214844-.085938 14.144531l.75.753907c1.953125 1.949219 4.511719 2.929687 7.070312 2.929687 2.558594 0 5.117188-.980468 7.070313-2.929687 3.90625-3.90625 3.90625-10.238281 0-14.144531zm0 0"/><path d="m298.414062 97.59375c-55.367187-55.367188-145.453124-55.367188-200.820312 0-43.640625 43.640625-54.160156 109.882812-26.175781 164.839844 2.507812 4.921875 8.527343 6.878906 13.449219 4.375 4.921874-2.507813 6.878906-8.527344 4.375-13.449219-24.042969-47.214844-15.003907-104.128906 22.492187-141.625 47.566406-47.566406 124.96875-47.566406 172.539063 0 47.566406 47.570313 47.566406 124.972656 0 172.539063-36.089844 36.089843-91.425782 45.898437-137.695313 24.40625-5.007813-2.324219-10.953125-.152344-13.28125 4.855468-2.324219 5.007813-.152344 10.957032 4.855469 13.28125 19.03125 8.839844 39.375 13.132813 59.585937 13.132813 36.984375-.003907 73.515625-14.375 100.675781-41.535157 26.820313-26.820312 41.59375-62.480468 41.59375-100.410156 0-37.929687-14.773437-73.589844-41.59375-100.410156zm0 0"/><path d="m503.222656 439.148438-136.933594-136.929688c18.828126-30.292969 29.71875-66.003906 29.71875-104.214844 0-109.179687-88.824218-198.003906-198.003906-198.003906-109.179687 0-198.003906 88.824219-198.003906 198.003906 0 109.179688 88.824219 198.003906 198.003906 198.003906 38.207032 0 73.917969-10.890624 104.203125-29.710937l136.933594 136.929687c5.851563 5.851563 13.53125 8.773438 21.214844 8.773438 7.683593 0 15.363281-2.925781 21.214843-8.773438l21.652344-21.652343c11.695313-11.695313 11.695313-30.726563 0-42.425781zm-483.222656-241.144532c0-98.152344 79.851562-178.003906 178.003906-178.003906s178.003906 79.851562 178.003906 178.003906-79.851562 178.003906-178.003906 178.003906-178.003906-79.851562-178.003906-178.003906zm334.695312 120.902344 22.132813 22.136719-35.792969 35.792969-22.136718-22.136719c13.398437-10.359375 25.433593-22.394531 35.796874-35.792969zm134.382813 148.527344-21.652344 21.652344c-3.898437 3.898437-10.242187 3.898437-14.140625 0l-98.105468-98.105469 35.792968-35.792969 98.105469 98.101562c3.898437 3.902344 3.898437 10.246094 0 14.144532zm0 0"/></svg>