<svg height="512" viewBox="0 0 64 64" width="512" xmlns="http://www.w3.org/2000/svg"><path d="M30 8v48c0 2.76-2.24 5-5 5s-5-2.24-5-5c0-.07.02-.14.02-.22-.48.14-.99.22-1.52.22-3.04 0-5.5-2.46-5.5-5.5 0-.52.08-1.03.22-1.51-.08 0-.15.01-.22.01-3.31 0-6-2.69-6-6 0-1.6.63-3.06 1.66-4.13C5.43 38.24 3 35.41 3 32s2.43-6.24 5.66-6.87A5.94 5.94 0 017 21c0-3.31 2.69-6 6-6 .07 0 .14.01.22.01-.14-.48-.22-.99-.22-1.51 0-3.04 2.46-5.5 5.5-5.5.53 0 1.04.08 1.52.22 0-.08-.02-.15-.02-.22 0-2.76 2.24-5 5-5s5 2.24 5 5zm25.34 17.13C58.57 25.76 61 28.59 61 32s-2.43 6.24-5.66 6.87A5.94 5.94 0 0157 43c0 3.31-2.69 6-6 6-.07 0-.14-.01-.22-.01.14.48.22.99.22 1.51 0 3.04-2.46 5.5-5.5 5.5-.53 0-1.04-.08-1.52-.22 0 .08.02.15.02.22 0 2.76-2.24 5-5 5s-5-2.24-5-5V8c0-2.76 2.24-5 5-5s5 2.24 5 5c0 .07-.02.14-.02.22.48-.14.99-.22 1.52-.22 3.04 0 5.5 2.46 5.5 5.5 0 .52-.08 1.03-.22 1.51.08 0 .15-.01.22-.01 3.31 0 6 2.69 6 6 0 1.6-.63 3.06-1.66 4.13z" fill="#fda22e"/><g fill="#f82f45"><circle cx="44" cy="14" r="2"/><circle cx="50" cy="28" r="2"/><circle cx="40" cy="50" r="2"/><circle cx="50" cy="43" r="2"/><circle cx="23" cy="14" r="2"/><circle cx="15" cy="37" r="2"/><circle cx="21" cy="45" r="2"/><circle cx="14" cy="21" r="2"/></g><path d="M57.008 24.588A6.958 6.958 0 0058 21c0-3.529-2.625-6.457-6.026-6.933.017-.189.026-.378.026-.567 0-3.776-3.277-6.825-7.079-6.473A6.01 6.01 0 0039 2c-3.309 0-6 2.691-6 6v48c0 3.309 2.691 6 6 6a6.01 6.01 0 005.921-5.027C48.72 57.328 52 54.276 52 50.5c0-.189-.009-.378-.026-.567C55.375 49.457 58 46.529 58 43a6.958 6.958 0 00-.992-3.588C59.973 38.209 62 35.298 62 32s-2.027-6.209-4.992-7.412zm-1.856 13.299a1.001 1.001 0 00-.533 1.671A4.97 4.97 0 0156 43c0 2.755-2.24 4.997-5.052 4.997l-.13-.007a.981.981 0 00-.822.384.998.998 0 00-.173.89c.117.411.177.827.177 1.236 0 2.481-2.019 4.5-4.5 4.5-.413 0-.832-.061-1.246-.179a1 1 0 00-1.275 1.007c.001.031.017.141.021.172 0 2.206-1.794 4-4 4s-4-1.794-4-4V36h4v11.184A2.996 2.996 0 0037 50c0 1.654 1.346 3 3 3s3-1.346 3-3a2.996 2.996 0 00-2-2.816V36h8v4.184A2.996 2.996 0 0047 43c0 1.654 1.346 3 3 3s3-1.346 3-3a2.996 2.996 0 00-2-2.816V35a1 1 0 00-1-1H35v-5h12.184A2.996 2.996 0 0050 31c1.654 0 3-1.346 3-3s-1.346-3-3-3a2.996 2.996 0 00-2.816 2H35v-5h9a1 1 0 001-1v-4.184A2.996 2.996 0 0047 14c0-1.654-1.346-3-3-3s-3 1.346-3 3c0 1.302.839 2.402 2 2.816V20h-8V8c0-2.206 1.794-4 4-4s4 1.794 3.999 3.979a5.998 5.998 0 00-.02.193 1 1 0 001.275 1.007A4.549 4.549 0 0145.5 9c2.481 0 4.5 2.019 4.5 4.5 0 .409-.06.825-.177 1.236a1.001 1.001 0 00.995 1.274L51 16c2.757 0 5 2.243 5 5a4.97 4.97 0 01-1.381 3.442 1.001 1.001 0 00.533 1.671A6.007 6.007 0 0160 32a6.006 6.006 0 01-4.848 5.887zM41 50c0 .551-.449 1-1 1s-1-.449-1-1 .449-1 1-1 1 .449 1 1zm10-7c0 .551-.449 1-1 1s-1-.449-1-1 .449-1 1-1 1 .449 1 1zm-2-15c0-.551.449-1 1-1s1 .449 1 1-.449 1-1 1-1-.449-1-1zm-6-14c0-.551.449-1 1-1s1 .449 1 1-.449 1-1 1-1-.449-1-1zM6.992 39.412A6.958 6.958 0 006 43c0 3.529 2.625 6.457 6.026 6.933A6.327 6.327 0 0012 50.5c0 3.777 3.293 6.816 7.079 6.474A6.01 6.01 0 0025 62c3.309 0 6-2.691 6-6V8c0-3.309-2.691-6-6-6a6.01 6.01 0 00-5.921 5.027C15.289 6.672 12 9.724 12 13.5c0 .189.009.378.026.567C8.625 14.543 6 17.471 6 21c0 1.278.346 2.511.992 3.588C4.027 25.791 2 28.702 2 32s2.027 6.209 4.992 7.412zM21 44c.551 0 1 .449 1 1s-.449 1-1 1-1-.449-1-1 .449-1 1-1zm1 3.816c1.161-.414 2-1.514 2-2.816s-.839-2.402-2-2.816V36h7v14h-7zM8.848 26.113a1.001 1.001 0 00.533-1.671A4.97 4.97 0 018 21c0-2.755 2.24-4.997 5.052-4.997l.13.007c.31.006.625-.132.822-.384s.261-.583.173-.89A4.52 4.52 0 0114 13.5c0-2.481 2.019-4.5 4.5-4.5.413 0 .832.061 1.246.179a1 1 0 001.275-1.007C21.02 8.141 21.004 8.031 21 8c0-2.206 1.794-4 4-4s4 1.794 4 4v12h-5v-3.184A2.996 2.996 0 0026 14c0-1.654-1.346-3-3-3s-3 1.346-3 3c0 1.302.839 2.402 2 2.816V20h-5.184A2.996 2.996 0 0014 18c-1.654 0-3 1.346-3 3s1.346 3 3 3a2.996 2.996 0 002.816-2H29v5H15a1 1 0 00-1 1v6.184A2.996 2.996 0 0012 37c0 1.654 1.346 3 3 3s3-1.346 3-3a2.996 2.996 0 00-2-2.816V29h13v5h-8a1 1 0 00-1 1v7.184c-1.161.414-2 1.514-2 2.816s.839 2.402 2 2.816V51a1 1 0 001 1h8v4c0 2.206-1.794 4-4 4s-4-1.794-3.999-3.979c.004-.031.018-.161.02-.193a.998.998 0 00-.999-1.046c-.093 0-.186.013-.277.039A4.488 4.488 0 0118.5 55a4.505 4.505 0 01-4.5-4.5c0-.409.06-.825.177-1.236a1.001 1.001 0 00-.995-1.274L13 48c-2.757 0-5-2.243-5-5a4.97 4.97 0 011.381-3.442 1.001 1.001 0 00-.533-1.671C6.039 37.34 4 34.864 4 32s2.039-5.34 4.848-5.887zM22 14c0-.551.449-1 1-1s1 .449 1 1-.449 1-1 1-1-.449-1-1zm-7 7c0 .551-.449 1-1 1s-1-.449-1-1 .449-1 1-1 1 .449 1 1zm1 16c0 .551-.449 1-1 1s-1-.449-1-1 .449-1 1-1 1 .449 1 1z" fill="#171526"/><path d="M47 20h2v2h-2zM6 31h2v2H6zm6 12h2v2h-2zm43-12h2v2h-2z" fill="#171526"/></svg>