<svg height="512pt" viewBox="0 0 512 512" width="512pt" xmlns="http://www.w3.org/2000/svg"><path d="M305.035 354.977l141.176 141.18c7.812 7.808 20.476 7.808 28.285 0l21.652-21.653c7.809-7.809 7.809-20.473 0-28.285L354.973 305.043zm0 0" fill="#ff5d5d"/><path d="M390.977 341.043l-49.938 49.937-36-36.003 49.938-49.934zm0 0" fill="#d8d8e4"/><path d="M386.008 198.004c0 103.832-84.172 188.004-188.004 188.004S10 301.836 10 198.004 94.172 10 198.004 10s188.004 84.172 188.004 188.004zm0 0" fill="#72d8ff"/><path d="M330.008 198.004c0 72.902-59.102 132.004-132.004 132.004S66 270.906 66 198.004 125.102 66 198.004 66s132.004 59.102 132.004 132.004zm0 0" fill="#fff"/><path d="M188.094 253.25l-52.758-52.758 28.285-28.285 24.473 24.473 58.129-58.13 28.285 28.286zm0 0" fill="#ff5d5d"/><path d="M188.094 263.25a9.97 9.97 0 007.074-2.93l86.41-86.414a10 10 0 000-14.14l-28.285-28.286c-3.906-3.902-10.234-3.902-14.14 0l-51.06 51.06-17.402-17.407c-1.875-1.875-4.418-2.926-7.07-2.926s-5.195 1.05-7.07 2.926l-28.29 28.285a10.012 10.012 0 000 14.144l52.762 52.758a9.968 9.968 0 007.07 2.93zm-24.473-76.902l17.402 17.406c1.875 1.875 4.418 2.926 7.07 2.926s5.196-1.051 7.071-2.926l51.059-51.059 14.14 14.14-72.27 72.274-38.616-38.617zm-52.547 97.262c-3.883-3.93-10.215-3.97-14.144-.09-3.93 3.882-3.97 10.214-.086 14.144l.75.754a9.984 9.984 0 007.07 2.93 9.98 9.98 0 007.07-2.93c3.907-3.906 3.907-10.238 0-14.145zm0 0"/><path d="M298.414 97.594c-55.367-55.367-145.453-55.367-200.82 0-43.64 43.64-54.16 109.883-26.176 164.84 2.508 4.921 8.527 6.878 13.45 4.375 4.921-2.508 6.878-8.528 4.374-13.45C65.2 206.145 74.238 149.23 111.734 111.734c47.567-47.566 124.97-47.566 172.54 0 47.566 47.57 47.566 124.973 0 172.54-36.09 36.09-91.426 45.898-137.696 24.406-5.008-2.325-10.953-.153-13.281 4.855-2.324 5.008-.152 10.957 4.855 13.281 19.032 8.84 39.375 13.133 59.586 13.133 36.985-.004 73.516-14.375 100.676-41.535 26.82-26.82 41.594-62.48 41.594-100.41s-14.774-73.59-41.594-100.41zm0 0"/><path d="M503.223 439.148l-136.934-136.93c18.828-30.292 29.719-66.003 29.719-104.214C396.008 88.824 307.184 0 198.004 0 88.824 0 0 88.824 0 198.004c0 109.18 88.824 198.004 198.004 198.004 38.207 0 73.918-10.89 104.203-29.711l136.934 136.93c5.851 5.851 13.53 8.773 21.214 8.773 7.684 0 15.364-2.926 21.215-8.773l21.653-21.653c11.695-11.695 11.695-30.726 0-42.426zM20 198.004C20 99.852 99.852 20 198.004 20s178.004 79.852 178.004 178.004-79.852 178.004-178.004 178.004S20 296.156 20 198.004zm334.695 120.902l22.133 22.137-35.793 35.793-22.137-22.137a199.678 199.678 0 0035.797-35.793zm134.383 148.528l-21.652 21.652c-3.899 3.898-10.242 3.898-14.14 0L355.18 390.98l35.793-35.793 98.105 98.102c3.899 3.902 3.899 10.246 0 14.145zm0 0"/></svg>