<svg xmlns="http://www.w3.org/2000/svg" version="1.1" id="Layer1" x="0" y="0" viewBox="0 0 256 256" xml:space="preserve" width="512" height="512"><style>.st0{fill:#e9e9ea}.st2{fill:#55acd5}.st3{fill:#ea4647}.st4{fill:#ffcd29}.st7{fill:#6dcc6d}.st8{fill:#231f20}</style><path class="st0" d="M227.4 32.1H57.1c-7 0-12.6 5.7-12.6 12.6V58h158.7c7 0 12.6 5.7 12.6 12.6v156.9h11.6c7 0 12.6-5.7 12.6-12.6V44.7c-.1-6.9-5.7-12.6-12.6-12.6z"/><path class="st0" d="M33 58.1h170.2c7 0 12.6 5.6 12.6 12.6v170.2c0 7-5.6 12.6-12.6 12.6H33c-7 0-12.6-5.6-12.6-12.6V70.7c0-7 5.6-12.6 12.6-12.6z"/><path d="M154.2 212.6h45.2c2 0 3.6 1.6 3.6 3.6V237c0 2-1.6 3.6-3.6 3.6h-45.2c-2 0-3.6-1.6-3.6-3.6v-20.8c.1-2 1.7-3.6 3.6-3.6zm0-38.9h45.2c2 0 3.6 1.6 3.6 3.6v20.8c0 2-1.6 3.6-3.6 3.6h-45.2c-2 0-3.6-1.6-3.6-3.6v-20.8c.1-2 1.7-3.6 3.6-3.6zm45.2-77.8h-45.2c-.4 0-.8.1-1.1.2 6.8 7.7 11 17.5 11.9 27.8h34.4c2 0 3.6-1.6 3.6-3.6V99.4c0-1.9-1.6-3.5-3.6-3.5zm0 38.9h-34.7c-1.4 10.1-5.9 19.6-13 27 .7.6 1.5 1 2.5 1h45.2c2 0 3.6-1.6 3.6-3.6v-20.8c0-2-1.6-3.6-3.6-3.6z" fill="#898989"/><path class="st2" d="M149.3 92.2c-19.8-18-50.6-16.6-68.6 3.3-14.4 15.9-16.7 39.3-5.7 57.7.5.9.6 1.9.1 2.8l-8.3 18c-.7 1.5 0 3.4 1.5 4.1.8.4 1.8.4 2.6 0l17.9-8.3c.9-.4 2-.4 2.9.2 23 13.8 52.9 6.2 66.6-16.8 11.9-20 8.1-45.4-9-61z"/><path class="st3" d="M91.7 169.9c-.9-.5-2-.6-2.9-.2L70.9 178c-1.5.7-3.4 0-4.1-1.5-.4-.8-.4-1.8 0-2.6l8.3-17.9c.4-.9.4-2-.1-2.8-10.9-18.2-8.8-41.4 5.4-57.3H36.8c-2 0-3.6 1.6-3.6 3.6V198c0 2 1.6 3.6 3.6 3.6h97.5c2 0 3.6-1.6 3.6-3.6v-26c-14.8 7-32.1 6.2-46.2-2.1z"/><path class="st4" d="M137.2 123.8c.5-.5.5-1.3 0-1.8-.2-.2-.4-.3-.7-.4l-11.9-1.7c-.4-.1-.8-.3-.9-.7l-5.3-10.8c-.3-.6-1.1-.9-1.7-.6-.2.1-.4.3-.6.6l-5.3 10.8c-.2.4-.5.6-.9.7L98 121.6c-.7.1-1.2.7-1.1 1.4 0 .3.2.5.4.7l8.6 8.4c.3.3.4.7.4 1.1l-2 11.9c-.1.7.3 1.3 1 1.5.3 0 .6 0 .8-.1l10.7-5.6c.4-.2.8-.2 1.2 0l10.7 5.6c.6.3 1.4.1 1.7-.5.1-.2.2-.5.1-.8l-2-11.9c-.1-.4.1-.8.4-1.1l8.3-8.4z"/><path d="M155.3 125c.3-.3.3-.8 0-1.2-.1-.1-.3-.2-.5-.2l-7.7-1.1c-.3 0-.5-.2-.6-.4l-3.5-7c-.2-.4-.7-.6-1.1-.4-.2.1-.3.2-.4.4l-3.5 7c-.1.2-.3.4-.6.4.2.5.1 1-.3 1.3l-4.6 4.5 2.2 2.2c.2.2.3.5.2.7l-1.3 7.7c-.1.4.2.9.7.9.2 0 .4 0 .5-.1l6.9-3.6c.2-.1.5-.1.8 0l6.9 3.6c.4.2.9.1 1.1-.3.1-.2.1-.3.1-.5l-1.3-7.7c0-.3 0-.5.2-.7l5.8-5.5zm-56 6.2c0-.3 0-.5.2-.7l2.2-2.2-4.6-4.5c-.4-.3-.5-.9-.3-1.3-.2 0-.5-.2-.6-.4l-3.5-7c-.2-.4-.7-.6-1.1-.4-.2.1-.3.2-.4.4l-3.5 7c-.1.2-.3.4-.6.4l-7.7 1.1c-.4.1-.8.5-.7.9 0 .2.1.3.2.5l5.6 5.5c.2.2.3.5.2.7l-1.3 7.7c-.1.4.2.9.7.9.2 0 .4 0 .5-.1l6.9-3.6c.2-.1.5-.1.8 0l6.9 3.6c.4.2.9.1 1.1-.3.1-.2.1-.3.1-.5l-1.1-7.7z" fill="#ffae2c"/><path d="M203.2 58.1H33c-7 0-12.6 5.7-12.6 12.6V84h76.1c12.8-5.8 27.6-5.8 40.4 0h78.9V70.7c0-7-5.6-12.6-12.6-12.6zm24.2-26H57.1c-7 0-12.6 5.7-12.6 12.6V58H240V44.7c-.1-6.9-5.7-12.6-12.6-12.6z" fill="#6d6c6b"/><path class="st3" d="M41.2 65.5c-3 .6-5 3.6-4.4 6.6.6 3 3.6 5 6.6 4.4 2.6-.5 4.5-2.8 4.5-5.5 0-3.1-2.5-5.6-5.6-5.6-.4 0-.7.1-1.1.1z"/><path class="st4" d="M60.2 65.5c-3 .6-5 3.6-4.4 6.6s3.6 5 6.6 4.4C65.1 76 67 73.7 67 71c0-3.1-2.5-5.6-5.6-5.6-.4 0-.8.1-1.2.1z"/><path class="st7" d="M79.3 65.5c-3 .6-5 3.6-4.4 6.6.6 3 3.6 5 6.6 4.4C84.1 76 86 73.7 86 71c0-3.1-2.5-5.6-5.6-5.6-.4 0-.7.1-1.1.1z"/><path class="st3" d="M65.3 39.6c-3 .6-5 3.6-4.4 6.6.6 3 3.6 5 6.6 4.4 2.6-.5 4.5-2.8 4.5-5.5 0-3.1-2.5-5.6-5.6-5.6-.3 0-.7 0-1.1.1z"/><path class="st4" d="M84.4 39.6c-3 .6-5 3.6-4.4 6.6.6 3 3.6 5 6.6 4.4 2.6-.5 4.5-2.8 4.5-5.5 0-3.1-2.5-5.6-5.6-5.6-.4 0-.7 0-1.1.1z"/><path class="st7" d="M103.4 39.6c-3 .6-5 3.6-4.4 6.6.6 3 3.6 5 6.6 4.4 2.6-.5 4.5-2.8 4.5-5.5 0-3.1-2.5-5.6-5.6-5.6-.3 0-.7 0-1.1.1z"/><path class="st8" d="M203.2 55.6H33c-8.3 0-15.1 6.8-15.1 15.1v170.2c0 8.3 6.8 15.1 15.1 15.1h170.2c8.3 0 15.1-6.8 15.1-15.1V70.7c0-8.4-6.8-15.1-15.1-15.1zm10.1 185.3c0 5.6-4.5 10.1-10.1 10.1H33c-5.6 0-10.1-4.5-10.1-10.1V70.7c0-5.6 4.5-10.1 10.1-10.1h170.2c5.6 0 10.1 4.5 10.1 10.1v170.2z"/><path class="st8" d="M47.4 64.8c-3.5-2.8-8.6-2.3-11.4 1.1s-2.3 8.6 1.1 11.4c3.5 2.8 8.6 2.3 11.4-1.1 1.2-1.5 1.8-3.3 1.8-5.2.1-2.4-1-4.7-2.9-6.2zm-5.1 9.4c-1.7 0-3.1-1.4-3.1-3.1 0-1.5 1.1-2.8 2.5-3.1.2 0 .4-.1.6-.1.7 0 1.4.3 2 .7.7.6 1.1 1.5 1.1 2.4 0 1.8-1.4 3.2-3.1 3.2zm24.2-9.4c-3.5-2.8-8.6-2.3-11.4 1.1-2.8 3.5-2.3 8.6 1.1 11.4s8.6 2.3 11.4-1.1c1.2-1.5 1.8-3.3 1.8-5.2.1-2.4-1-4.7-2.9-6.2zm-5.2 9.4c-1.7 0-3.1-1.4-3.1-3.1 0-1.5 1.1-2.8 2.5-3.1.2 0 .4-.1.6-.1.7 0 1.4.3 2 .7.7.6 1.1 1.5 1.1 2.4 0 1.8-1.3 3.2-3.1 3.2zm24.2-9.4c-3.5-2.8-8.6-2.3-11.4 1.1-2.8 3.5-2.3 8.6 1.1 11.4 3.5 2.8 8.6 2.3 11.4-1.1 1.2-1.5 1.8-3.3 1.8-5.2.1-2.4-1-4.7-2.9-6.2zm-5.1 9.4c-1.7 0-3.1-1.4-3.1-3.1 0-1.5 1.1-2.8 2.5-3.1.2 0 .4-.1.6-.1.7 0 1.4.3 2 .7.7.6 1.1 1.5 1.1 2.4 0 1.8-1.4 3.2-3.1 3.2zm116.7-5.7h-6.7c-1.4 0-2.5 1.1-2.5 2.5s1.1 2.5 2.5 2.5h6.7c1.4 0 2.5-1.1 2.5-2.5s-1.1-2.5-2.5-2.5zm2.3 141.6h-45.2c-3.3 0-6.1 2.7-6.1 6.1V237c0 3.3 2.7 6.1 6.1 6.1h45.2c3.3 0 6.1-2.7 6.1-6.1v-20.8c0-3.4-2.7-6.1-6.1-6.1zm1.1 26.9c0 .6-.5 1.1-1.1 1.1h-45.2c-.6 0-1.1-.5-1.1-1.1v-20.8c0-.6.5-1.1 1.1-1.1h45.2c.6 0 1.1.5 1.1 1.1V237zm-1.1-65.8h-45.2c-3.3 0-6.1 2.7-6.1 6.1v20.8c0 3.3 2.7 6.1 6.1 6.1h45.2c3.3 0 6.1-2.7 6.1-6.1v-20.8c0-3.4-2.7-6.1-6.1-6.1zm1.1 26.9c0 .6-.5 1.1-1.1 1.1h-45.2c-.6 0-1.1-.5-1.1-1.1v-20.8c0-.6.5-1.1 1.1-1.1h45.2c.6 0 1.1.5 1.1 1.1v20.8zm-66.3 19H36.3c-1.4 0-2.5 1.1-2.5 2.5s1.1 2.5 2.5 2.5h97.9c1.4 0 2.5-1.1 2.5-2.5s-1.1-2.5-2.5-2.5zm0 12.9H36.3c-1.4 0-2.5 1.1-2.5 2.5s1.1 2.5 2.5 2.5h97.9c1.4 0 2.5-1.1 2.5-2.5s-1.1-2.5-2.5-2.5zm5-60.2c-.7-.5-1.6-.5-2.4-.1-14 6.8-30.4 6.1-43.7-1.9-1.6-1-3.6-1.1-5.3-.3l-17.9 8.3c-.3.1-.6 0-.8-.3-.1-.2-.1-.3 0-.5l8.3-17.9c.8-1.7.7-3.6-.3-5.2-10.5-17.3-8.4-39.3 5.1-54.3.9-1 .8-2.6-.2-3.5-.5-.4-1.1-.6-1.7-.6H36.8c-3.3 0-6.1 2.7-6.1 6.1v98.5c0 3.3 2.7 6.1 6.1 6.1h97.5c3.3 0 6.1-2.7 6.1-6.1v-26c-.1-1.1-.5-1.9-1.2-2.3zm-3.9 28.1c0 .6-.5 1.1-1.1 1.1H36.8c-.6 0-1.1-.5-1.1-1.1V99.4c0-.6.5-1.1 1.1-1.1h38.4c-12 16.5-12.9 38.6-2.3 56.1.1.2.1.3 0 .5l-8.3 17.9c-1.3 2.8-.1 6.1 2.7 7.4 1.5.7 3.2.7 4.7 0l17.9-8.3c.2-.1.4-.1.6.1 13.6 8.2 30.2 9.5 44.9 3.7l-.1 22.2z"/><path class="st8" d="M203.2 55.6H33c-8.3 0-15.1 6.8-15.1 15.1V84c0 1.4 1.1 2.5 2.5 2.5h76.1c.4 0 .7-.1 1-.2 12.2-5.5 26.2-5.5 38.4 0 .3.1.7.2 1 .2h78.9c1.4 0 2.5-1.1 2.5-2.5V70.7c0-8.4-6.8-15.1-15.1-15.1zm10.1 25.9h-75.9c-13.2-5.8-28.3-5.8-41.5 0h-73V70.7c0-5.6 4.5-10.1 10.1-10.1h170.2c5.6 0 10.1 4.5 10.1 10.1v10.8zM71.6 38.8C68.1 36 63 36.5 60.2 40c-2.8 3.5-2.3 8.6 1.1 11.4s8.6 2.3 11.4-1.1c1.2-1.5 1.8-3.3 1.8-5.2.1-2.4-1-4.7-2.9-6.3zm-5.2 9.4c-1.7 0-3.1-1.4-3.1-3.1 0-1.5 1.1-2.8 2.5-3.1.2 0 .4-.1.6-.1.7 0 1.4.3 2 .7.7.6 1.1 1.5 1.1 2.4.1 1.8-1.3 3.2-3.1 3.2zm24.2-9.4c-3.5-2.8-8.6-2.3-11.4 1.1-2.8 3.5-2.3 8.6 1.1 11.4 3.5 2.8 8.6 2.3 11.4-1.1 1.2-1.5 1.8-3.3 1.8-5.2.1-2.3-1-4.6-2.9-6.2zm-5.1 9.4c-1.7 0-3.1-1.4-3.1-3.1 0-1.5 1.1-2.8 2.5-3.1.2 0 .4-.1.6-.1.7 0 1.4.3 2 .7.7.6 1.1 1.5 1.1 2.4 0 1.8-1.4 3.2-3.1 3.2zm24.2-9.4c-3.5-2.8-8.6-2.3-11.4 1.1-2.8 3.5-2.3 8.6 1.1 11.4 3.5 2.8 8.6 2.3 11.4-1.1 1.2-1.5 1.8-3.3 1.8-5.2.1-2.3-1-4.6-2.9-6.2zm-5.2 9.4c-1.7 0-3.1-1.4-3.1-3.1 0-1.5 1.1-2.8 2.5-3.1.2 0 .4-.1.6-.1.7 0 1.4.3 2 .7.7.6 1.1 1.5 1.1 2.4.1 1.8-1.3 3.2-3.1 3.2z"/><path class="st8" d="M227.4 29.6H57.1c-8.3 0-15.1 6.8-15.1 15.1V58c0 1.4 1.1 2.5 2.5 2.5H240c1.4 0 2.5-1.1 2.5-2.5V44.7c0-8.3-6.8-15.1-15.1-15.1zm10.1 26H47V44.7c0-5.6 4.5-10.1 10.1-10.1h170.2c5.6 0 10.1 4.5 10.1 10.1l.1 10.9zm-38.1 37.8h-45.2c-.6 0-1.3.1-1.9.3-1.3.4-2 1.8-1.6 3.2.1.3.3.6.5.9 6.5 7.3 10.5 16.6 11.3 26.3.1 1.3 1.2 2.3 2.5 2.3h34.4c3.3 0 6.1-2.7 6.1-6.1V99.4c0-3.3-2.7-6-6.1-6zm1.1 26.9c0 .6-.5 1.1-1.1 1.1h-32.2c-1.1-8.3-4.2-16.2-9.1-23h41.3c.6 0 1.1.5 1.1 1.1v20.8z"/><path class="st8" d="M151 90.4c-20.9-19-53.2-17.4-72.2 3.4-15.2 16.7-17.6 41.3-6 60.7.1.2.1.3 0 .5l-8.3 17.9c-1.3 2.8-.1 6.1 2.7 7.4.7.3 1.5.5 2.3.5.8 0 1.6-.2 2.4-.5l17.9-8.3c.2-.1.4-.1.6.1 24.2 14.5 55.6 6.6 70-17.6 12.6-21 8.6-47.8-9.4-64.1zm-1.8 70.4c-14.9 15-38.1 17.8-56.2 7-1.6-1-3.6-1.1-5.3-.3l-17.9 8.3c-.3.1-.6 0-.8-.3-.1-.2-.1-.3 0-.5l8.3-17.9c.8-1.7.7-3.6-.3-5.2-13.1-21.9-5.9-50.2 15.9-63.2 17.4-10.4 39.5-8.2 54.6 5.4 18.8 17.1 20.2 46.3 3.1 65.1-.3.5-.8 1-1.4 1.6z"/><path class="st8" d="M199.4 132.3h-34.7c-1.3 0-2.3.9-2.5 2.2-1.3 9.6-5.6 18.6-12.3 25.6-1 1-.9 2.6.1 3.5 1.1 1.1 2.6 1.7 4.2 1.7h45.2c3.3 0 6.1-2.7 6.1-6.1v-20.8c0-3.4-2.7-6.1-6.1-6.1zm1.1 26.9c0 .6-.5 1.1-1.1 1.1h-43c5.4-6.6 9-14.5 10.5-23h32.5c.6 0 1.1.5 1.1 1.1v20.8z"/><path class="st8" d="M227.4 29.6H57.1c-8.3 0-15.1 6.8-15.1 15.1V58c0 1.4 1.1 2.5 2.5 2.5h158.7c5.6 0 10.1 4.5 10.1 10.1v156.9c0 1.4 1.1 2.5 2.5 2.5h11.6c8.3 0 15.1-6.8 15.1-15.1V44.7c0-8.3-6.8-15.1-15.1-15.1zm10.1 185.3c0 5.6-4.5 10.1-10.1 10.1h-9.1V70.7c0-8.3-6.8-15.1-15.1-15.1H47V44.7c0-5.6 4.5-10.1 10.1-10.1h170.2c5.6 0 10.1 4.5 10.1 10.1l.1 170.2z"/><path class="st8" d="M139.9 121.8c-.4-1.4-1.6-2.4-3-2.6l-11.3-1.6-5-10.2c-.9-1.9-3.2-2.6-5-1.7-.7.4-1.3 1-1.7 1.7l-5 10.2-11.3 1.6c-2.1.3-3.5 2.2-3.2 4.3.1.8.5 1.6 1.1 2.1l8.2 8-1.9 11.2c-.4 2 1 4 3.1 4.3.8.1 1.7 0 2.4-.4l10.1-5.3 10.1 5.3c1.8 1 4.1.3 5.1-1.6.4-.7.5-1.6.4-2.4l-1.9-11.2 8.2-8c.7-.9 1-2.4.6-3.7zm-13.1 8.7c-.9.9-1.3 2.1-1.1 3.3l1.6 9.4-8.4-4.4c-1.1-.6-2.4-.6-3.5 0l-8.4 4.4 1.6-9.4c.2-1.2-.2-2.5-1.1-3.3l-6.8-6.7 9.4-1.4c1.2-.2 2.3-.9 2.8-2.1l4.2-8.5 4.2 8.5c.5 1.1 1.6 1.9 2.8 2.1l9.4 1.4-6.7 6.7z"/><path class="st8" d="M157.8 123.4c-.4-1.2-1.4-2.1-2.7-2.3l-6.9-1-3.1-6.2c-.8-1.6-2.8-2.3-4.4-1.5-.7.3-1.2.9-1.5 1.5l-3.2 6.5c-.7.5-1.1 1.2-1.1 2.1l-4.1 4c-1 1-1 2.5 0 3.5l1.6 1.6-1.2 6.8c-.3 1.8.9 3.5 2.7 3.8.7.1 1.5 0 2.1-.3l6.1-3.2 6.1 3.2c1.6.9 3.6.2 4.5-1.4.3-.6.5-1.4.3-2.1l-1.2-6.8 5-4.8c1.1-.9 1.4-2.2 1-3.4zm-9.9 5.3c-.8.8-1.1 1.9-1 2.9l.7 4.4-3.9-2.1c-1-.5-2.1-.5-3.1 0l-3.9 2.1.7-4.4c.2-1.1-.2-2.2-1-2.9l-.4-.4 2.8-2.7c.5-.5.9-1.2 1.1-2 .1-.2.2-.3.3-.5l2-4 2 4c.5 1 1.4 1.7 2.5 1.8l4.4.6-3.2 3.2zm-43.7-.4c0-.7-.3-1.3-.8-1.8l-4.1-4c0-.8-.4-1.6-1.1-2.1l-3.2-6.5c-.8-1.6-2.8-2.3-4.4-1.5-.7.3-1.2.9-1.5 1.5l-3.1 6.2-6.9 1c-1.8.3-3.1 1.9-2.8 3.8.1.7.4 1.4 1 1.9l5 4.8-1.2 6.8c-.3 1.8.9 3.5 2.7 3.8.7.1 1.5 0 2.1-.3l6.1-3.2 6.1 3.2c1.6.9 3.6.2 4.5-1.4.3-.6.5-1.4.3-2.1l-1.2-6.8 1.6-1.6c.7-.4.9-1 .9-1.7zm-6.5.4c-.8.8-1.1 1.9-1 2.9l.7 4.4-3.9-2.1c-1-.5-2.1-.5-3.1 0l-3.9 2.1.7-4.4c.2-1.1-.2-2.2-1-2.9l-3.2-3.1 4.4-.6c1.1-.2 2-.8 2.5-1.8l2-4 2 4c.1.2.2.3.3.5.1.7.5 1.4 1.1 2l2.8 2.7-.4.3z"/><path class="st3" d="M24.7 37h-1.8v-1.8c0-1.4-1.1-2.5-2.5-2.5s-2.5 1.1-2.5 2.5V37H16c-1.4 0-2.5 1.1-2.5 2.5S14.7 42 16 42h1.8v1.8c0 1.4 1.1 2.5 2.5 2.5s2.5-1.1 2.5-2.5V42h1.8c1.4 0 2.5-1.1 2.5-2.5s-1-2.5-2.4-2.5z"/><path class="st2" d="M242.4 240c0-.2-.1-.3-.1-.5-.1-.1-.1-.3-.2-.4-.1-.1-.2-.3-.3-.4-1-.9-2.5-.9-3.5 0-.1.1-.2.2-.3.4-.2.3-.3.6-.4.9-.1.3-.1.7 0 1 0 .2.1.3.1.5.1.2.1.3.2.4.1.1.2.3.3.4 1 1 2.5 1 3.5 0 .1-.1.2-.2.3-.4.1-.1.2-.3.2-.4.1-.1.1-.3.1-.5.2-.3.2-.7.1-1z"/><path class="st7" d="M118.3 18.7c0-.2-.1-.3-.1-.5-.1-.1-.1-.3-.2-.4-.1-.1-.2-.3-.3-.4-1-.9-2.5-.9-3.5 0-.1.1-.2.2-.3.4-.2.3-.3.6-.4.9-.1.3-.1.7 0 1 0 .2.1.3.1.5.1.2.1.3.2.4.1.1.2.3.3.4 1 1 2.5 1 3.5 0 .1-.1.2-.2.3-.4.1-.1.2-.3.2-.4.1-.1.1-.3.1-.5.2-.4.2-.7.1-1z"/><path class="st4" d="M94.2 8.2c-4.1-.8-7.2-4-8-8 0-.1-.1-.2-.2-.2s-.1.1-.2.2c-.8 4.1-4 7.2-8 8-.1 0-.2.1-.2.2s.1.1.2.2c4.1.8 7.2 4 8 8 0 .1.1.2.2.2s.1-.1.2-.2c.8-4.1 4-7.2 8-8 .1 0 .2-.1.2-.2-.1-.2-.1-.2-.2-.2z"/></svg>