<svg id="magnifying-glass" xmlns="http://www.w3.org/2000/svg" width="200" height="200.002" viewBox="0 0 200 200.002">
  <path id="Path_230" data-name="Path 230" d="M305.035,324.549,360.183,379.7a7.814,7.814,0,0,0,11.049,0l8.458-8.458a7.814,7.814,0,0,0,0-11.049l-55.147-55.147Zm0,0" transform="translate(-185.879 -185.884)" fill="#ff5d5d"/>
  <path id="Path_231" data-name="Path 231" d="M338.609,319.106,319.1,338.613l-14.063-14.064,19.507-19.506Zm0,0" transform="translate(-185.882 -185.884)" fill="#d8d8e4"/>
  <path id="Path_232" data-name="Path 232" d="M156.88,83.44A73.44,73.44,0,1,1,83.44,10,73.44,73.44,0,0,1,156.88,83.44Zm0,0" transform="translate(-6.094 -6.094)" fill="#72d8ff"/>
  <path id="Path_233" data-name="Path 233" d="M169.129,117.565A51.565,51.565,0,1,1,117.565,66,51.565,51.565,0,0,1,169.129,117.565Zm0,0" transform="translate(-40.218 -40.218)" fill="#fff"/>
  <path id="Path_234" data-name="Path 234" d="M155.945,183.356l-20.609-20.609L146.385,151.7l9.56,9.56,22.707-22.707L189.7,149.6Zm0,0" transform="translate(-82.47 -84.429)" fill="#ff5d5d"/>
  <path id="Path_235" data-name="Path 235" d="M149.851,181.17a3.894,3.894,0,0,0,2.763-1.144l33.754-33.756a3.9,3.9,0,0,0,0-5.524L175.32,129.7a3.908,3.908,0,0,0-5.524,0l-19.945,19.945-6.8-6.8a3.909,3.909,0,0,0-5.524,0l-11.051,11.049a3.91,3.91,0,0,0,0,5.525l20.61,20.609A3.894,3.894,0,0,0,149.851,181.17Zm-9.56-30.04,6.8,6.8a3.909,3.909,0,0,0,5.524,0l19.945-19.945,5.524,5.524L149.851,171.74l-15.085-15.085Zm0,0" transform="translate(-76.376 -78.337)"/>
  <path id="Path_236" data-name="Path 236" d="M100.643,281.8a3.906,3.906,0,1,0-5.559,5.49l.293.295a3.906,3.906,0,0,0,5.524-5.525Zm0,0" transform="translate(-57.255 -171.011)"/>
  <path id="Path_237" data-name="Path 237" d="M150.63,72.289a55.479,55.479,0,0,0-88.671,64.391,3.907,3.907,0,1,0,6.963-3.545,47.657,47.657,0,1,1,22.4,21.61,3.906,3.906,0,0,0-3.291,7.085,55.478,55.478,0,0,0,62.6-89.541Zm0,0" transform="translate(-34.061 -34.166)"/>
  <path id="Path_238" data-name="Path 238" d="M196.574,171.544l-53.49-53.489a77.41,77.41,0,1,0-25.032,25.031l53.49,53.489a11.733,11.733,0,0,0,16.574,0l8.458-8.458A11.733,11.733,0,0,0,196.574,171.544ZM7.813,77.346A69.534,69.534,0,1,1,77.346,146.88,69.612,69.612,0,0,1,7.813,77.346Zm130.742,47.228,8.646,8.647L133.218,147.2l-8.647-8.647A78,78,0,0,0,138.554,124.574Zm52.494,58.019-8.458,8.458a3.91,3.91,0,0,1-5.524,0l-38.323-38.323,13.982-13.982,38.323,38.321A3.912,3.912,0,0,1,191.048,182.593Zm0,0"/>
</svg>
