<svg xmlns="http://www.w3.org/2000/svg" width="200" height="200" viewBox="0 0 200 200">
  <g id="artificial-intelligence" transform="translate(-2 -2)">
    <path id="Path_222" data-name="Path 222" d="M93,19.667v160a16.667,16.667,0,1,1-33.333,0c0-.233.067-.467.067-.733a18.073,18.073,0,0,1-5.067.733,18.323,18.323,0,0,1-18.333-18.333,18.017,18.017,0,0,1,.733-5.033c-.267,0-.5.033-.733.033a20.016,20.016,0,0,1-20-20,19.8,19.8,0,0,1,5.533-13.767,23.331,23.331,0,0,1,0-45.8A19.8,19.8,0,0,1,16.333,63a20.016,20.016,0,0,1,20-20c.233,0,.467.033.733.033A18.017,18.017,0,0,1,36.333,38,18.323,18.323,0,0,1,54.667,19.667a18.073,18.073,0,0,1,5.067.733c0-.267-.067-.5-.067-.733a16.667,16.667,0,0,1,33.333,0Z" transform="translate(2.333 2.333)" fill="#fda22e"/>
    <path id="Path_223" data-name="Path 223" d="M105.133,76.767a23.331,23.331,0,0,1,0,45.8,19.8,19.8,0,0,1,5.533,13.767,20.016,20.016,0,0,1-20,20c-.233,0-.467-.033-.733-.033a18.018,18.018,0,0,1,.733,5.033,18.323,18.323,0,0,1-18.333,18.333,18.073,18.073,0,0,1-5.067-.733c0,.267.067.5.067.733a16.667,16.667,0,1,1-33.333,0v-160a16.667,16.667,0,1,1,33.333,0c0,.233-.067.467-.067.733a18.073,18.073,0,0,1,5.067-.733A18.323,18.323,0,0,1,90.667,38a18.018,18.018,0,0,1-.733,5.033c.267,0,.5-.033.733-.033a20.016,20.016,0,0,1,20,20,19.8,19.8,0,0,1-5.533,13.767Z" transform="translate(74.667 2.333)" fill="#fda22e"/>
    <g id="Group_961" data-name="Group 961" transform="translate(35.333 35.333)">
      <circle id="Ellipse_45" data-name="Ellipse 45" cx="6.667" cy="6.667" r="6.667" transform="translate(100)" fill="#f82f45"/>
      <circle id="Ellipse_46" data-name="Ellipse 46" cx="6.667" cy="6.667" r="6.667" transform="translate(120 46.667)" fill="#f82f45"/>
      <circle id="Ellipse_47" data-name="Ellipse 47" cx="6.667" cy="6.667" r="6.667" transform="translate(86.667 120)" fill="#f82f45"/>
      <circle id="Ellipse_48" data-name="Ellipse 48" cx="6.667" cy="6.667" r="6.667" transform="translate(120 96.667)" fill="#f82f45"/>
      <circle id="Ellipse_49" data-name="Ellipse 49" cx="6.667" cy="6.667" r="6.667" transform="translate(30)" fill="#f82f45"/>
      <circle id="Ellipse_50" data-name="Ellipse 50" cx="6.667" cy="6.667" r="6.667" transform="translate(3.333 76.667)" fill="#f82f45"/>
      <circle id="Ellipse_51" data-name="Ellipse 51" cx="6.667" cy="6.667" r="6.667" transform="translate(23.333 103.333)" fill="#f82f45"/>
      <circle id="Ellipse_52" data-name="Ellipse 52" cx="6.667" cy="6.667" r="6.667" transform="translate(0 23.333)" fill="#f82f45"/>
    </g>
    <path id="Path_224" data-name="Path 224" d="M113.027,77.293a23.324,23.324,0,0,0-16.78-35.07c.057-.63.087-1.26.087-1.89a21.725,21.725,0,0,0-23.6-21.577A20,20,0,0,0,33,22V182a20,20,0,0,0,39.737,3.243,21.724,21.724,0,0,0,23.6-21.577c0-.63-.03-1.26-.087-1.89a23.324,23.324,0,0,0,16.78-35.07,26.662,26.662,0,0,0,0-49.413Zm-6.187,44.33a3.331,3.331,0,0,0-1.777,5.57,16.641,16.641,0,0,1-12.237,28.13c-.05,0-.387-.02-.433-.023a3.27,3.27,0,0,0-2.74,1.28,3.328,3.328,0,0,0-.577,2.967A14.967,14.967,0,0,1,70.513,178.07a3.331,3.331,0,0,0-4.25,3.357c0,.1.057.47.07.573a13.333,13.333,0,1,1-26.667,0V115.333H53v37.28a10,10,0,1,0,6.667,0v-37.28H86.333V129.28a10,10,0,1,0,6.667,0V112a3.335,3.335,0,0,0-3.333-3.333h-50V92H80.28a10,10,0,1,0,0-6.667H39.667V68.667h30A3.335,3.335,0,0,0,73,65.333V51.387a10,10,0,1,0-6.667,0V62H39.667V22a13.332,13.332,0,0,1,26.663-.07c-.013.1-.06.537-.067.643a3.332,3.332,0,0,0,4.25,3.357A14.962,14.962,0,0,1,89.077,44.453,3.332,3.332,0,0,0,92.393,48.7c.04,0,.567-.03.607-.033a16.648,16.648,0,0,1,12.063,28.14,3.331,3.331,0,0,0,1.777,5.57,19.994,19.994,0,0,1,0,39.247ZM59.667,162a3.333,3.333,0,1,1-3.333-3.333A3.339,3.339,0,0,1,59.667,162ZM93,138.667a3.333,3.333,0,1,1-3.333-3.333A3.339,3.339,0,0,1,93,138.667Zm-6.667-50A3.333,3.333,0,1,1,89.667,92,3.339,3.339,0,0,1,86.333,88.667ZM66.333,42a3.333,3.333,0,1,1,3.333,3.333A3.339,3.339,0,0,1,66.333,42Z" transform="translate(72.333 0)" fill="#171526"/>
    <path id="Path_225" data-name="Path 225" d="M18.64,126.707a23.324,23.324,0,0,0,16.78,35.07c-.057.63-.087,1.26-.087,1.89a21.773,21.773,0,0,0,23.6,21.58A20,20,0,0,0,98.667,182V22A20,20,0,0,0,58.93,18.757a21.74,21.74,0,0,0-23.6,21.577c0,.63.03,1.26.087,1.89a23.324,23.324,0,0,0-16.78,35.07,26.662,26.662,0,0,0,0,49.413ZM65.333,142A3.333,3.333,0,1,1,62,145.333,3.339,3.339,0,0,1,65.333,142Zm3.333,12.72a9.942,9.942,0,0,0,0-18.773V115.333H92V162H68.667ZM24.827,82.377a3.331,3.331,0,0,0,1.777-5.57A16.641,16.641,0,0,1,38.84,48.677c.047,0,.387.02.433.023a3.424,3.424,0,0,0,2.74-1.28,3.328,3.328,0,0,0,.577-2.967A14.967,14.967,0,0,1,61.153,25.93a3.332,3.332,0,0,0,4.25-3.357c0-.1-.057-.47-.07-.573A13.333,13.333,0,1,1,92,22V62H75.333V51.387a10,10,0,1,0-6.667,0V62H51.387a10,10,0,1,0,0,6.667H92V85.333H45.333A3.335,3.335,0,0,0,42,88.667V109.28a10,10,0,1,0,6.667,0V92H92v16.667H65.333A3.335,3.335,0,0,0,62,112v23.947a9.942,9.942,0,0,0,0,18.773v10.613a3.335,3.335,0,0,0,3.333,3.333H92V182a13.332,13.332,0,0,1-26.663.07c.013-.1.06-.537.067-.643a3.335,3.335,0,0,0-4.253-3.357,14.961,14.961,0,0,1-18.56-18.523,3.332,3.332,0,0,0-3.317-4.247c-.04,0-.567.03-.607.033A16.648,16.648,0,0,1,26.6,127.193a3.331,3.331,0,0,0-1.777-5.57,19.994,19.994,0,0,1,0-39.247ZM68.667,42A3.333,3.333,0,1,1,72,45.333,3.339,3.339,0,0,1,68.667,42ZM45.333,65.333A3.333,3.333,0,1,1,42,62,3.339,3.339,0,0,1,45.333,65.333Zm3.333,53.333a3.333,3.333,0,1,1-3.333-3.333A3.339,3.339,0,0,1,48.667,118.667Z" transform="translate(0 0)" fill="#171526"/>
    <path id="Path_226" data-name="Path 226" d="M47,20h6.667v6.667H47Z" transform="translate(105 42)" fill="#171526"/>
    <path id="Path_227" data-name="Path 227" d="M6,31h6.667v6.667H6Z" transform="translate(9.333 67.667)" fill="#171526"/>
    <path id="Path_228" data-name="Path 228" d="M12,43h6.667v6.667H12Z" transform="translate(23.333 95.667)" fill="#171526"/>
    <path id="Path_229" data-name="Path 229" d="M55,31h6.667v6.667H55Z" transform="translate(123.667 67.667)" fill="#171526"/>
  </g>
</svg>
