<svg xmlns="http://www.w3.org/2000/svg" width="50.305" height="59.36" viewBox="0 0 50.305 59.36">
  <path id="Path_104" data-name="Path 104" d="M56,44.171V54.346a12.049,12.049,0,0,0,5.376,10.045l.66.44v9.523a1.006,1.006,0,0,0,1.006,1.006H75.116a1.006,1.006,0,0,0,1.006-1.006V61.727a23.1,23.1,0,0,0,10.061,0V74.355a1.006,1.006,0,0,0,1.006,1.006H99.262a1.006,1.006,0,0,0,1.006-1.006V64.832l.66-.44A12.049,12.049,0,0,0,106.3,54.346V44.171a3.024,3.024,0,0,0-2.114-2.88c.066-.714.1-1.433.1-2.151a1.006,1.006,0,0,0-1.006-1.006H95.238a1.006,1.006,0,0,0-1.006,1.006A13.079,13.079,0,1,1,81.152,26.062a1.006,1.006,0,0,0,1.006-1.006V17.007A1.006,1.006,0,0,0,81.152,16a23.167,23.167,0,0,0-23.14,23.14c0,.717.036,1.437.1,2.151A3.024,3.024,0,0,0,56,44.171ZM74.11,73.348H64.049V65.3H74.11Zm24.146,0H88.2V65.3H98.256Zm6.037-19a10.041,10.041,0,0,1-4.48,8.371l-.855.57H88.2V61.182a23.166,23.166,0,0,0,5.1-2.344,7.832,7.832,0,0,0-.071,1.035v1.4h2.012v-1.4a5.761,5.761,0,0,1,2.571-4.8,1.006,1.006,0,0,0,.448-.837V50.208a1.006,1.006,0,1,1,2.012,0v5.031h2.012V44.171a1.006,1.006,0,1,1,2.012,0ZM80.146,18.036v6.046A15.092,15.092,0,1,0,96.211,40.147h6.046c-.019.409-.051.817-.094,1.222a3.022,3.022,0,0,0-1.895,2.8v3.191a3.018,3.018,0,0,0-4.025,2.846v3.509a7.777,7.777,0,0,0-1.611,1.691,21.126,21.126,0,0,1-26.963,0,7.775,7.775,0,0,0-1.611-1.691V50.208a3.017,3.017,0,0,0-4.025-2.846V44.172a3.022,3.022,0,0,0-1.9-2.8,21.458,21.458,0,0,1-.117-2.228,21.154,21.154,0,0,1,20.122-21.1ZM58.012,44.171a1.006,1.006,0,0,1,2.012,0V55.239h2.012V50.208a1.006,1.006,0,0,1,2.012,0v4.024a1.006,1.006,0,0,0,.448.837,5.761,5.761,0,0,1,2.571,4.8v1.4h2.012v-1.4a7.826,7.826,0,0,0-.071-1.035,23.162,23.162,0,0,0,5.1,2.344v2.105H63.347l-.855-.57a10.041,10.041,0,0,1-4.48-8.371Z" transform="translate(-56 -16.001)"/>
</svg>
