<svg xmlns="http://www.w3.org/2000/svg" width="55" height="55" viewBox="0 0 55 55">
  <g id="responsibility" transform="translate(-1 -1)">
    <path id="Path_107" data-name="Path 107" d="M11.548,16.984v1.774A5.316,5.316,0,0,0,14,23.234a2.3,2.3,0,0,1-1.777.846H12.1a4.1,4.1,0,0,0-4.1,4.1v4.774a.887.887,0,0,0,.887.887H24.855a.887.887,0,0,0,.887-.887V30.29h7.1v2.661a.887.887,0,0,0,.887.887H49.693a.887.887,0,0,0,.887-.887V28.177a4.1,4.1,0,0,0-4.1-4.1h-.13a2.294,2.294,0,0,1-1.776-.846,5.318,5.318,0,0,0,2.454-4.476V16.984a5.323,5.323,0,1,0-10.645,0v1.774a5.316,5.316,0,0,0,2.455,4.476,2.276,2.276,0,0,1-1,.7,4.1,4.1,0,0,0-3.777-2.512h-.13a2.294,2.294,0,0,1-1.776-.846A5.318,5.318,0,0,0,34.613,16.1V14.323a5.323,5.323,0,0,0-10.645,0V16.1a5.316,5.316,0,0,0,2.455,4.476,2.3,2.3,0,0,1-1.777.846h-.13a4.1,4.1,0,0,0-3.777,2.513,2.276,2.276,0,0,1-1-.7,5.319,5.319,0,0,0,2.455-4.477V16.984a5.323,5.323,0,1,0-10.645,0ZM23.968,32.064H9.774V28.177A2.325,2.325,0,0,1,12.1,25.855h.13a4.178,4.178,0,0,0,.67-.059l.319.319a5.161,5.161,0,0,0,7.2.1V29.4a.887.887,0,0,0,.887.887h2.661Zm22.516-6.21a2.325,2.325,0,0,1,2.322,2.322v3.887H34.613V30.29h2.661a.887.887,0,0,0,.887-.887V26.212a5.161,5.161,0,0,0,7.2-.1l.319-.319a4.178,4.178,0,0,0,.67.059Zm-8.323-8.871a3.548,3.548,0,1,1,7.1,0v1.774a3.548,3.548,0,0,1-7.1,0Zm3.548,7.1a5.309,5.309,0,0,0,1.189-.138,4.082,4.082,0,0,0,1,1.089,3.475,3.475,0,0,1-4.379,0,4.067,4.067,0,0,0,1-1.089,5.309,5.309,0,0,0,1.189.138ZM25.742,14.323a3.548,3.548,0,1,1,7.1,0V16.1a3.548,3.548,0,1,1-7.1,0Zm3.548,7.1a5.309,5.309,0,0,0,1.189-.138,4.082,4.082,0,0,0,1,1.089,3.475,3.475,0,0,1-4.379,0,4.067,4.067,0,0,0,1-1.089,5.309,5.309,0,0,0,1.189.138Zm-7.1,4.1a2.325,2.325,0,0,1,2.322-2.322h.13a4.178,4.178,0,0,0,.67-.059l.319.319a5.17,5.17,0,0,0,7.311,0l.319-.319a4.178,4.178,0,0,0,.67.059h.13a2.325,2.325,0,0,1,2.322,2.322v3H22.193Zm-3.133-.485a3.475,3.475,0,0,1-4.379,0,4.067,4.067,0,0,0,1-1.089,5.158,5.158,0,0,0,2.377,0,4.05,4.05,0,0,0,1,1.088Zm1.359-8.047v1.774a3.548,3.548,0,0,1-7.1,0V16.984a3.548,3.548,0,1,1,7.1,0Z" transform="translate(-0.79 -0.903)" fill="#5064f6"/>
    <path id="Path_108" data-name="Path 108" d="M50.406,42.831,32.23,47.788a3.41,3.41,0,0,0-.442-.546l-6.21-6.21a.888.888,0,0,0-.627-.259H15.193v-.887A.887.887,0,0,0,14.306,39H1.887A.887.887,0,0,0,1,39.887V59.4a.887.887,0,0,0,.887.887h7.1a.887.887,0,0,0,.887-.887v-.887h4.435a.887.887,0,0,0,.887-.887v-.887h6.066l5.186,1.728a.875.875,0,0,0,.569,0L55.4,48.709a.885.885,0,0,0,.6-.838v-.887a4.31,4.31,0,0,0-5.594-4.152ZM8.1,58.516H2.774V40.774H8.1Zm5.323-1.774H9.871V40.774h3.548Zm40.806-9.5-27.5,9.455-5.038-1.679a.913.913,0,0,0-.28-.045h-6.21V42.548h9.391l5.95,5.95a1.622,1.622,0,0,1-2.294,2.294L23.8,46.357,22.55,47.611l4.435,4.435a3.384,3.384,0,0,0,5.78-2.565l18.106-4.938a2.539,2.539,0,0,1,3.353,2.44Z" transform="translate(0 -4.29)"/>
    <path id="Path_109" data-name="Path 109" d="M40.887,2.315q-.862-.265-1.747-.476l-.412,1.725q.829.2,1.635.447Z" transform="translate(-4.26 -0.095)"/>
    <path id="Path_110" data-name="Path 110" d="M61,31.932c0,.4-.009.8-.027,1.192l1.772.082q.029-.633.029-1.274,0-.269-.005-.537l-1.774.035c0,.168.005.335.005.5Z" transform="translate(-6.771 -3.432)"/>
    <path id="Path_111" data-name="Path 111" d="M36.942,1.4c-.585-.1-1.188-.18-1.795-.242l-.18,1.765q.848.085,1.678.227Z" transform="translate(-3.835 -0.018)"/>
    <path id="Path_112" data-name="Path 112" d="M60.273,25.48l1.732-.381c-.13-.589-.279-1.179-.446-1.755l-1.7.494q.234.812.418,1.642Z" transform="translate(-6.645 -2.523)"/>
    <path id="Path_113" data-name="Path 113" d="M44.686,3.749c-.55-.254-1.112-.491-1.671-.7L42.38,4.7q.794.3,1.562.659Z" transform="translate(-4.672 -0.231)"/>
    <path id="Path_114" data-name="Path 114" d="M60.871,29.278l1.768-.151q-.077-.907-.212-1.8l-1.755.265q.128.833.2,1.683Z" transform="translate(-6.737 -2.973)"/>
    <path id="Path_115" data-name="Path 115" d="M55.61,15.028l1.451-1.02q-.52-.741-1.088-1.446L54.59,13.674Q55.122,14.334,55.61,15.028Z" transform="translate(-6.051 -1.305)"/>
    <path id="Path_116" data-name="Path 116" d="M59.182,21.8l1.668-.607c-.207-.568-.434-1.132-.674-1.678l-1.623.716q.339.772.63,1.569Z" transform="translate(-6.498 -2.09)"/>
    <path id="Path_117" data-name="Path 117" d="M54.5,10.851c-.4-.439-.831-.874-1.269-1.292l-1.224,1.284q.612.584,1.187,1.208Z" transform="translate(-5.759 -0.966)"/>
    <path id="Path_118" data-name="Path 118" d="M48.259,5.676c-.506-.32-1.032-.63-1.563-.919l-.847,1.56q.745.406,1.46.859Z" transform="translate(-5.064 -0.424)"/>
    <path id="Path_119" data-name="Path 119" d="M59.627,40.638l1.69.54c.185-.577.35-1.164.494-1.744l-1.722-.426Q59.884,39.834,59.627,40.638Z" transform="translate(-6.619 -4.291)"/>
    <path id="Path_120" data-name="Path 120" d="M62.553,35.446l-1.764-.2q-.094.846-.243,1.676l1.747.314C62.4,36.649,62.485,36.046,62.553,35.446Z" transform="translate(-6.723 -3.867)"/>
    <path id="Path_121" data-name="Path 121" d="M51.549,8.057c-.463-.386-.944-.762-1.427-1.115L49.076,8.375q.685.5,1.335,1.044Z" transform="translate(-5.428 -0.671)"/>
    <path id="Path_122" data-name="Path 122" d="M57.618,18.3l1.573-.821c-.278-.531-.577-1.061-.89-1.575l-1.515.922Q57.226,17.542,57.618,18.3Z" transform="translate(-6.299 -1.682)"/>
    <path id="Path_123" data-name="Path 123" d="M3.931,23.63l-1.7-.507c-.172.579-.327,1.168-.46,1.753l1.73.393Q3.69,24.439,3.931,23.63Z" transform="translate(-0.087 -2.498)"/>
    <path id="Path_124" data-name="Path 124" d="M5.245,20.025,3.627,19.3c-.246.545-.477,1.11-.688,1.677l1.662.618Q4.9,20.8,5.245,20.025Z" transform="translate(-0.219 -2.066)"/>
    <path id="Path_125" data-name="Path 125" d="M7.026,16.625l-1.507-.936c-.317.511-.621,1.04-.9,1.571l1.566.834Q6.58,17.345,7.026,16.625Z" transform="translate(-0.408 -1.659)"/>
    <path id="Path_126" data-name="Path 126" d="M9.239,13.493,7.866,12.37q-.574.7-1.1,1.437L8.207,14.84Q8.7,14.15,9.239,13.493Z" transform="translate(-0.651 -1.284)"/>
    <path id="Path_127" data-name="Path 127" d="M2.794,32.908c-.013-.333-.02-.668-.02-1,0-.232,0-.462.009-.692L1.01,31.165C1,31.41,1,31.658,1,31.907q0,.536.02,1.069Z" transform="translate(0 -3.406)"/>
    <path id="Path_128" data-name="Path 128" d="M3.108,27.382,1.355,27.1c-.094.594-.169,1.2-.224,1.8l1.766.163Q2.976,28.213,3.108,27.382Z" transform="translate(-0.015 -2.947)"/>
    <path id="Path_129" data-name="Path 129" d="M1.167,35.22q.094.907.247,1.794l1.749-.3q-.142-.83-.231-1.678Z" transform="translate(-0.019 -3.843)"/>
    <path id="Path_130" data-name="Path 130" d="M14.8,8.238,13.76,6.8q-.735.528-1.434,1.1l1.127,1.371Q14.107,8.734,14.8,8.238Z" transform="translate(-1.279 -0.655)"/>
    <path id="Path_131" data-name="Path 131" d="M21.53,4.626l-.623-1.662c-.565.212-1.127.444-1.671.69l.731,1.616q.769-.347,1.563-.645Z" transform="translate(-2.059 -0.222)"/>
    <path id="Path_132" data-name="Path 132" d="M25.2,3.516l-.4-1.729c-.585.134-1.175.29-1.752.464l.513,1.7C24.1,3.787,24.654,3.642,25.2,3.516Z" transform="translate(-2.49 -0.089)"/>
    <path id="Path_133" data-name="Path 133" d="M28.993,2.905l-.165-1.767c-.594.055-1.2.132-1.8.23l.283,1.752C27.868,3.03,28.428,2.957,28.993,2.905Z" transform="translate(-2.939 -0.016)"/>
    <path id="Path_134" data-name="Path 134" d="M18.043,6.208l-.836-1.565c-.532.284-1.059.588-1.567.906l.939,1.505Q17.294,6.607,18.043,6.208Z" transform="translate(-1.653 -0.411)"/>
    <path id="Path_135" data-name="Path 135" d="M31.821,2.774c.337,0,.681.005,1.019.017L32.9,1.019c-.333-.012-.668-.019-1-.019-.271,0-.54,0-.809.011l.054,1.774C31.369,2.778,31.593,2.774,31.821,2.774Z" transform="translate(-3.397 0)"/>
    <path id="Path_136" data-name="Path 136" d="M11.844,10.685l-1.212-1.3c-.434.405-.864.837-1.28,1.282l1.3,1.211C11.037,11.465,11.439,11.062,11.844,10.685Z" transform="translate(-0.943 -0.947)"/>
  </g>
</svg>
