<svg id="loyalty-card" xmlns="http://www.w3.org/2000/svg" width="46" height="46" viewBox="0 0 46 46">
  <path id="Path_81" data-name="Path 81" d="M42.167,0H3.833A3.838,3.838,0,0,0,0,3.833V23.767A3.838,3.838,0,0,0,3.833,27.6H14.567v6.133a.765.765,0,0,0,.225.542L18.4,37.884v7.349a.767.767,0,0,0,.767.767H41.4a.767.767,0,0,0,.767-.767V27.6A3.838,3.838,0,0,0,46,23.767V3.833A3.838,3.838,0,0,0,42.167,0ZM16.1,33.416V27.6H26.833v4.6a.765.765,0,0,0,.225.542l3.067,3.067,1.084-1.084-2.842-2.842V26.833a.765.765,0,0,0-.225-.542l-4.414-4.414a2.486,2.486,0,1,1,3.516-3.516l9.014,9.014a.765.765,0,0,0,.542.225h3.833V40.633h-20.7V37.567a.765.765,0,0,0-.225-.542Zm3.833,11.051v-2.3h20.7v2.3Zm24.533-20.7a2.3,2.3,0,0,1-2.3,2.3H37.117l-8.789-8.789a4.019,4.019,0,1,0-5.684,5.684l3.1,3.1H3.833a2.3,2.3,0,0,1-2.3-2.3V3.833a2.3,2.3,0,0,1,2.3-2.3H42.167a2.3,2.3,0,0,1,2.3,2.3Zm0,0"/>
  <path id="Path_82" data-name="Path 82" d="M54.861,36.051a.764.764,0,0,0-.836.166L52.35,37.892l-4.07-5.427a.794.794,0,0,0-1.226,0l-4.07,5.427-1.675-1.675A.766.766,0,0,0,40,36.759v8.433a7.667,7.667,0,1,0,15.333,0V36.759a.768.768,0,0,0-.473-.708ZM42.525,39.6a.778.778,0,0,0,.6.223.77.77,0,0,0,.559-.3L47.667,34.2l3.987,5.316a.766.766,0,0,0,1.155.081l.991-.991v2.749H41.534V38.61ZM53.8,45.192a6.133,6.133,0,1,1-12.267,0v-2.3H53.8Zm0,0" transform="translate(-36.167 -29.092)" fill="#5064f6"/>
  <path id="Path_83" data-name="Path 83" d="M112,96h1.533v1.533H112Zm0,0" transform="translate(-101.267 -86.8)" fill="#5064f6"/>
  <path id="Path_84" data-name="Path 84" d="M76.6,172.6a4.6,4.6,0,0,0,4.6-4.6H79.667a3.067,3.067,0,1,1-6.133,0H72A4.6,4.6,0,0,0,76.6,172.6Zm0,0" transform="translate(-65.1 -151.9)" fill="#5064f6"/>
  <path id="Path_85" data-name="Path 85" d="M336.433,80H330.3a2.3,2.3,0,0,0-2.3,2.3v3.067a2.3,2.3,0,0,0,2.3,2.3h6.133a2.3,2.3,0,0,0,2.3-2.3V82.3A2.3,2.3,0,0,0,336.433,80Zm.767,2.3v.767h-1.533V81.533h.767A.768.768,0,0,1,337.2,82.3Zm-4.6.767V81.533h1.533v1.533Zm1.533,1.533v1.533H332.6V84.6ZM330.3,81.533h.767v1.533h-1.533V82.3A.768.768,0,0,1,330.3,81.533Zm-.767,3.833V84.6h1.533v1.533H330.3A.768.768,0,0,1,329.533,85.367Zm6.9.767h-.767V84.6H337.2v.767A.768.768,0,0,1,336.433,86.133Zm0,0" transform="translate(-296.567 -72.333)"/>
  <path id="Path_86" data-name="Path 86" d="M408,176h1.533v1.533H408Zm0,0" transform="translate(-368.9 -159.133)"/>
  <path id="Path_87" data-name="Path 87" d="M376,176h1.533v1.533H376Zm0,0" transform="translate(-339.967 -159.133)"/>
  <path id="Path_88" data-name="Path 88" d="M344,176h1.533v1.533H344Zm0,0" transform="translate(-311.033 -159.133)"/>
</svg>
