<svg xmlns="http://www.w3.org/2000/svg" width="70" height="56.179" viewBox="0 0 70 56.179">
  <g id="partner" transform="translate(0 0)">
    <path id="Path_145" data-name="Path 145" d="M37.488,7.153a.918.918,0,1,0-1.3,0A.918.918,0,0,0,37.488,7.153Zm0,0" transform="translate(18.293)" fill="#5064f6"/>
    <path id="Path_146" data-name="Path 146" d="M11.978,9.054a.918.918,0,1,0-1.3,0A.918.918,0,0,0,11.978,9.054Zm0,0" transform="translate(5.302 3.852)" fill="#5064f6"/>
    <path id="Path_147" data-name="Path 147" d="M6.576,14.34l2.747-2.749a.918.918,0,0,0-1.3-1.3L5.278,13.042a.918.918,0,0,0,1.3,1.3Zm0,0" transform="translate(0 5.584)" fill="#5064f6"/>
    <path id="Path_148" data-name="Path 148" d="M40.516,11.678a.918.918,0,1,0,1.3-1.3L39.983,8.548a.918.918,0,0,0-1.3,1.3Zm0,0" transform="translate(23 4.488)" fill="#5064f6"/>
    <path id="Path_149" data-name="Path 149" d="M69.6,15.869,54.134.4a1.366,1.366,0,0,0-1.9-.028C51.029,1.5,45.383,6.82,45.3,6.9l-.015.014a5.731,5.731,0,0,1-4.269,1.933,10.849,10.849,0,0,0-7.931,2.922,10.181,10.181,0,0,0-6.4-2.756L19.853,2.178a1.367,1.367,0,0,0-1.934,0L.4,19.7a1.365,1.365,0,0,0-.03,1.9l.03.033,11.416,11.4-.483.483a4.781,4.781,0,0,0,3.433,8.164A4.779,4.779,0,0,0,19.6,46.51a4.777,4.777,0,0,0,4.834,4.832A4.784,4.784,0,0,0,32.6,54.779l.484-.484.484.484a4.785,4.785,0,0,0,8.168-3.435,4.777,4.777,0,0,0,4.831-4.833A4.783,4.783,0,0,0,51.4,41.675a4.781,4.781,0,0,0,3.433-8.164l-.482-.482C63.888,23.507,51.83,35.575,69.6,17.8a1.367,1.367,0,0,0,0-1.933ZM3.3,20.663,18.886,5.078l5.252,5.252L8.557,25.915Zm9.966,17.681a2.05,2.05,0,0,1,0-2.9L18.1,30.61a2.051,2.051,0,0,1,2.9,2.9l-4.833,4.833a2.056,2.056,0,0,1-2.9,0ZM18.1,43.179a2.049,2.049,0,0,1,0-2.9l4.833-4.833a2.051,2.051,0,1,1,2.9,2.9h0L21,43.179a2.053,2.053,0,0,1-2.9,0Zm4.833,4.833a2.049,2.049,0,0,1,0-2.9l4.834-4.834a2.051,2.051,0,0,1,2.9,2.9h0l-4.832,4.832a2.055,2.055,0,0,1-2.9,0Zm4.834,4.835a2.049,2.049,0,0,1,0-2.9L32.6,45.112a2.051,2.051,0,0,1,2.9,2.9l-4.834,4.834a2.054,2.054,0,0,1-2.9,0Zm10.634,0a2.052,2.052,0,0,1-2.9,0l-.484-.484,2.417-2.417a4.94,4.94,0,0,0,.448-.519l.518.519h0a2.049,2.049,0,0,1,0,2.9Zm14.5-14.5a2.055,2.055,0,0,1-2.9,0L43.72,32.061a1.367,1.367,0,0,0-1.934,1.933l6.284,6.284a2.051,2.051,0,0,1-2.9,2.9l-6.284-6.285a1.367,1.367,0,0,0-1.934,1.934l6.284,6.285a2.051,2.051,0,0,1-1.451,3.5c-1.3,0-1.718-1.023-2.95-2.1A4.783,4.783,0,0,0,34,41.777a4.779,4.779,0,0,0-4.834-4.831,4.779,4.779,0,0,0-4.833-4.836,4.785,4.785,0,0,0-8.168-3.433L13.75,31.095l-3.258-3.248L26.583,11.753A7.382,7.382,0,0,1,31.147,13.7l-3.863,3.862a5.469,5.469,0,0,0,7.735,7.734l3.868-3.867L52.9,35.445a2.052,2.052,0,0,1,0,2.9Zm-.483-7.249-11.6-11.6.967-.967a1.367,1.367,0,0,0-1.934-1.934L33.085,23.36a2.735,2.735,0,0,1-3.868-3.868l5.568-5.566a8.145,8.145,0,0,1,6.232-2.345A8.028,8.028,0,0,0,46.185,9.77L59.8,23.737l-7.377,7.358ZM61.733,21.8,48.2,7.922l4.936-4.65L66.7,16.836Zm0,0"/>
  </g>
</svg>
