<svg xmlns="http://www.w3.org/2000/svg" width="60" height="52.969" viewBox="0 0 60 52.969">
  <path id="info_1_" data-name="info (1)" d="M57.656,52.5A2.344,2.344,0,0,0,60,50.156V32.344a2.344,2.344,0,0,0-2.991-2.253c-2.715.78-6.175.56-10.556.281C43.71,30.2,40.6,30,37.031,30A9.353,9.353,0,0,0,30,33.184,9.353,9.353,0,0,0,22.969,30c-3.57,0-6.679.2-9.422.372-4.381.279-7.841.5-10.556-.281A2.344,2.344,0,0,0,0,32.344V71.226a9.375,9.375,0,0,0,9.375,9.4H27.656a2.344,2.344,0,1,0,4.687,0H50.625A9.386,9.386,0,0,0,60,71.25V61.875a2.344,2.344,0,1,0-4.687,0,4.693,4.693,0,0,1-4.687,4.688H33.515a5.86,5.86,0,0,0-1.172.118V39.375a4.693,4.693,0,0,1,4.687-4.687c3.421,0,6.452.193,9.125.363a55.254,55.254,0,0,0,9.156.118V50.156A2.344,2.344,0,0,0,57.656,52.5ZM4.687,35.169a55.267,55.267,0,0,0,9.156-.118c2.673-.17,5.7-.363,9.125-.363a4.693,4.693,0,0,1,4.687,4.687V66.68a5.861,5.861,0,0,0-1.172-.118H9.375a4.693,4.693,0,0,1-4.687-4.687ZM9.375,75.937a4.687,4.687,0,0,1-4.687-4.705V69.989A9.315,9.315,0,0,0,9.375,71.25H26.484a1.173,1.173,0,0,1,1.172,1.172v3.516ZM33.515,71.25H50.625a9.314,9.314,0,0,0,4.688-1.261V71.25a4.693,4.693,0,0,1-4.687,4.688H32.343V72.422A1.173,1.173,0,0,1,33.515,71.25ZM46.289,49.922V60.234a2.344,2.344,0,0,1-4.687,0V49.922a2.344,2.344,0,0,1,4.688,0Zm0-8.086a2.344,2.344,0,1,1-2.344-2.344A2.344,2.344,0,0,1,46.289,41.836Z" transform="translate(0 -30)"/>
</svg>
